<svg width="795" height="663" viewBox="0 0 795 663" fill="none" xmlns="http://www.w3.org/2000/svg">
<path d="M319.734 660.213C319.734 661.794 318.45 663.078 316.869 663.078C315.288 663.078 314.004 661.794 314.004 660.213C314.004 658.632 315.288 657.348 316.869 657.348C318.45 657.367 319.734 658.632 319.734 660.213Z" fill="white"/>
<path d="M550.704 23.9292C552.286 23.9292 553.569 22.6465 553.569 21.0643C553.569 19.4822 552.286 18.1996 550.704 18.1996C549.122 18.1996 547.839 19.4822 547.839 21.0643C547.839 22.6465 549.122 23.9292 550.704 23.9292Z" fill="white"/>
<g opacity="0.7">
<path opacity="0.7" d="M103.33 436.795L514.224 9.84692" stroke="#969696" stroke-width="3.72052" stroke-miterlimit="10" stroke-linecap="round" stroke-linejoin="round" stroke-dasharray="0.56 0.56"/>
<path opacity="0.7" d="M106.623 471.619L543.337 17.1019" stroke="#969696" stroke-width="3.72052" stroke-miterlimit="10" stroke-linecap="round" stroke-linejoin="round" stroke-dasharray="0.56 0.56"/>
<path opacity="0.7" d="M119.812 495.859L568.897 28.1519" stroke="#969696" stroke-width="3.72052" stroke-miterlimit="10" stroke-linecap="round" stroke-linejoin="round" stroke-dasharray="0.56 0.56"/>
<path opacity="0.7" d="M138.377 514.387L597.508 35.9651" stroke="#969696" stroke-width="3.72052" stroke-miterlimit="10" stroke-linecap="round" stroke-linejoin="round" stroke-dasharray="0.56 0.56"/>
<path opacity="0.7" d="M152.831 537.287L626.36 43.499" stroke="#969696" stroke-width="3.72052" stroke-miterlimit="10" stroke-linecap="round" stroke-linejoin="round" stroke-dasharray="0.56 0.56"/>
<path opacity="0.7" d="M169.834 557.471L656.981 49.1543" stroke="#969696" stroke-width="3.72052" stroke-miterlimit="10" stroke-linecap="round" stroke-linejoin="round" stroke-dasharray="0.56 0.56"/>
<path opacity="0.7" d="M186.706 577.803L680.42 62.4552" stroke="#969696" stroke-width="3.72052" stroke-miterlimit="10" stroke-linecap="round" stroke-linejoin="round" stroke-dasharray="0.56 0.56"/>
<path opacity="0.7" d="M203.598 598.099L709.105 70.1752" stroke="#969696" stroke-width="3.72052" stroke-miterlimit="10" stroke-linecap="round" stroke-linejoin="round" stroke-dasharray="0.56 0.56"/>
<path opacity="0.7" d="M221.009 617.836L732.432 83.6063" stroke="#969696" stroke-width="3.72052" stroke-miterlimit="10" stroke-linecap="round" stroke-linejoin="round" stroke-dasharray="0.56 0.56"/>
<path opacity="0.7" d="M236.394 639.768L751.853 101.204" stroke="#969696" stroke-width="3.72052" stroke-miterlimit="10" stroke-linecap="round" stroke-linejoin="round" stroke-dasharray="0.56 0.56"/>
<path opacity="0.7" d="M253.844 659.468L773.768 116.142" stroke="#969696" stroke-width="3.72052" stroke-miterlimit="10" stroke-linecap="round" stroke-linejoin="round" stroke-dasharray="0.56 0.56"/>
<path opacity="0.7" d="M272.353 678.034L795.365 131.433" stroke="#969696" stroke-width="3.72052" stroke-miterlimit="10" stroke-linecap="round" stroke-linejoin="round" stroke-dasharray="0.56 0.56"/>
<path opacity="0.7" d="M287.961 699.706L792.482 172.824" stroke="#969696" stroke-width="3.72052" stroke-miterlimit="10" stroke-linecap="round" stroke-linejoin="round" stroke-dasharray="0.56 0.56"/>
</g>
<g opacity="0.7">
<g opacity="0.7">
<path opacity="0.7" d="M345.499 678.983L756.412 252.034" stroke="#969696" stroke-width="3.72052" stroke-miterlimit="10" stroke-linecap="round" stroke-linejoin="round" stroke-dasharray="0.56 0.56"/>
<path opacity="0.7" d="M348.792 713.807L785.525 259.289" stroke="#969696" stroke-width="3.72052" stroke-miterlimit="10" stroke-linecap="round" stroke-linejoin="round" stroke-dasharray="0.56 0.56"/>
<path opacity="0.7" d="M362 738.046L811.085 270.339" stroke="#969696" stroke-width="3.72052" stroke-miterlimit="10" stroke-linecap="round" stroke-linejoin="round" stroke-dasharray="0.56 0.56"/>
<path opacity="0.7" d="M380.546 756.574L839.677 278.134" stroke="#969696" stroke-width="3.72052" stroke-miterlimit="10" stroke-linecap="round" stroke-linejoin="round" stroke-dasharray="0.56 0.56"/>
<path opacity="0.7" d="M395.019 779.455L868.53 285.668" stroke="#969696" stroke-width="3.72052" stroke-miterlimit="10" stroke-linecap="round" stroke-linejoin="round" stroke-dasharray="0.56 0.56"/>
<path opacity="0.7" d="M412.022 799.658L899.15 291.323" stroke="#969696" stroke-width="3.72052" stroke-miterlimit="10" stroke-linecap="round" stroke-linejoin="round" stroke-dasharray="0.56 0.56"/>
<path opacity="0.7" d="M428.875 819.99L922.589 304.642" stroke="#969696" stroke-width="3.72052" stroke-miterlimit="10" stroke-linecap="round" stroke-linejoin="round" stroke-dasharray="0.56 0.56"/>
<path opacity="0.7" d="M445.767 840.286L951.274 312.362" stroke="#969696" stroke-width="3.72052" stroke-miterlimit="10" stroke-linecap="round" stroke-linejoin="round" stroke-dasharray="0.56 0.56"/>
<path opacity="0.7" d="M463.198 860.023L974.602 325.793" stroke="#969696" stroke-width="3.72052" stroke-miterlimit="10" stroke-linecap="round" stroke-linejoin="round" stroke-dasharray="0.56 0.56"/>
<path opacity="0.7" d="M478.563 881.937L994.041 343.373" stroke="#969696" stroke-width="3.72052" stroke-miterlimit="10" stroke-linecap="round" stroke-linejoin="round" stroke-dasharray="0.56 0.56"/>
<path opacity="0.7" d="M496.013 901.656L1015.96 358.329" stroke="#969696" stroke-width="3.72052" stroke-miterlimit="10" stroke-linecap="round" stroke-linejoin="round" stroke-dasharray="0.56 0.56"/>
<path opacity="0.7" d="M514.541 920.203L1037.53 373.621" stroke="#969696" stroke-width="3.72052" stroke-miterlimit="10" stroke-linecap="round" stroke-linejoin="round" stroke-dasharray="0.56 0.56"/>
<path opacity="0.7" d="M530.149 941.893L1034.67 415.012" stroke="#969696" stroke-width="3.72052" stroke-miterlimit="10" stroke-linecap="round" stroke-linejoin="round" stroke-dasharray="0.56 0.56"/>
</g>
</g>
<path d="M699.823 188.544C704.97 188.544 709.142 184.371 709.142 179.224C709.142 174.076 704.97 169.904 699.823 169.904C694.675 169.904 690.503 174.076 690.503 179.224C690.503 184.371 694.675 188.544 699.823 188.544Z" fill="url(#paint0_linear_21_68)"/>
<path d="M699.822 195.185C708.637 195.185 715.783 188.039 715.783 179.224C715.783 170.409 708.637 163.263 699.822 163.263C691.007 163.263 683.861 170.409 683.861 179.224C683.861 188.039 691.007 195.185 699.822 195.185Z" stroke="url(#paint1_linear_21_68)" stroke-width="1.86026" stroke-miterlimit="10"/>
<path d="M497.314 638.522C497.314 644.754 492.254 649.814 486.023 649.814C479.791 649.814 474.731 644.754 474.731 638.522C474.731 632.29 479.791 627.23 486.023 627.23C492.254 627.23 497.314 632.271 497.314 638.522Z" stroke="url(#paint2_linear_21_68)" stroke-width="1.86026" stroke-miterlimit="10"/>
<path d="M744.841 229.544C757.128 229.544 767.09 219.583 767.09 207.295C767.09 195.007 757.128 185.046 744.841 185.046C732.553 185.046 722.592 195.007 722.592 207.295C722.592 219.583 732.553 229.544 744.841 229.544Z" fill="url(#paint3_linear_21_68)"/>
<path d="M116.891 448.422C116.891 454.114 112.278 458.728 106.585 458.728C100.893 458.728 96.2794 454.114 96.2794 448.422C96.2794 442.729 100.893 438.116 106.585 438.116C112.278 438.116 116.891 442.729 116.891 448.422Z" fill="url(#paint4_linear_21_68)"/>
<path d="M632.983 153.571L649.576 133.796" stroke="url(#paint5_linear_21_68)" stroke-width="1.86026" stroke-miterlimit="10"/>
<path d="M638.08 157.831L664.142 126.783" stroke="url(#paint6_linear_21_68)" stroke-width="1.86026" stroke-miterlimit="10"/>
<path d="M632.983 174.257L659.752 142.335" stroke="url(#paint7_linear_21_68)" stroke-width="1.86026" stroke-miterlimit="10"/>
<path d="M126.769 383.796L143.344 364.022" stroke="url(#paint8_linear_21_68)" stroke-width="1.86026" stroke-miterlimit="10"/>
<path d="M131.848 388.075L157.91 357.009" stroke="url(#paint9_linear_21_68)" stroke-width="1.86026" stroke-miterlimit="10"/>
<path d="M126.769 404.483L153.52 372.561" stroke="url(#paint10_linear_21_68)" stroke-width="1.86026" stroke-miterlimit="10"/>
<path d="M679.936 494.463L701.106 469.201" stroke="url(#paint11_linear_21_68)" stroke-width="1.86026" stroke-miterlimit="10"/>
<path d="M686.428 499.914L719.708 460.235" stroke="url(#paint12_linear_21_68)" stroke-width="1.86026" stroke-miterlimit="10"/>
<path d="M679.936 520.879L714.128 480.121" stroke="url(#paint13_linear_21_68)" stroke-width="1.86026" stroke-miterlimit="10"/>
<g opacity="0.5">
<path opacity="0.5" d="M645.596 53.4701L620.743 81.1693" stroke="url(#paint14_linear_21_68)" stroke-width="1.86026" stroke-miterlimit="10"/>
<path opacity="0.5" d="M652.721 59.8694L613.693 103.381" stroke="url(#paint15_linear_21_68)" stroke-width="1.86026" stroke-miterlimit="10"/>
<path opacity="0.5" d="M675.118 49.2659L635.011 93.9679" stroke="url(#paint16_linear_21_68)" stroke-width="1.86026" stroke-miterlimit="10"/>
</g>
<path d="M116.891 482.446L148.423 444.85" stroke="url(#paint17_linear_21_68)" stroke-width="1.86026" stroke-miterlimit="10"/>
<path d="M126.565 490.557L176.103 431.512" stroke="url(#paint18_linear_21_68)" stroke-width="1.86026" stroke-miterlimit="10"/>
<path d="M116.891 521.772L167.769 461.09" stroke="url(#paint19_linear_21_68)" stroke-width="1.86026" stroke-miterlimit="10"/>
<path d="M176.103 400.911C179.525 400.911 182.298 398.137 182.298 394.716C182.298 391.295 179.525 388.522 176.103 388.522C172.682 388.522 169.909 391.295 169.909 394.716C169.909 398.137 172.682 400.911 176.103 400.911Z" fill="white"/>
<path d="M180.177 524.786C180.177 528.209 177.405 530.98 173.982 530.98C170.56 530.98 167.788 528.209 167.788 524.786C167.788 521.363 170.56 518.591 173.982 518.591C177.405 518.591 180.177 521.363 180.177 524.786Z" fill="white"/>
<path d="M147.734 224.354C147.734 225.935 146.451 227.218 144.87 227.218C143.288 227.218 142.005 225.935 142.005 224.354C142.005 222.772 143.288 221.489 144.87 221.489C146.451 221.507 147.734 222.772 147.734 224.354Z" fill="white"/>
<path d="M697.032 307.154C698.614 307.154 699.897 305.871 699.897 304.289C699.897 302.707 698.614 301.424 697.032 301.424C695.45 301.424 694.167 302.707 694.167 304.289C694.167 305.871 695.45 307.154 697.032 307.154Z" fill="white"/>
<path d="M725.438 562.14C725.438 563.721 724.154 565.005 722.573 565.005C720.992 565.005 719.708 563.721 719.708 562.14C719.708 560.558 720.992 559.275 722.573 559.275C724.154 559.294 725.438 560.558 725.438 562.14Z" fill="white"/>
<path d="M116.891 185.418C120.312 185.418 123.086 182.645 123.086 179.224C123.086 175.802 120.312 173.029 116.891 173.029C113.47 173.029 110.696 175.802 110.696 179.224C110.696 182.645 113.47 185.418 116.891 185.418Z" fill="white"/>
<path d="M285.561 591.141C285.561 594.564 282.789 597.336 279.366 597.336C275.943 597.336 273.171 594.564 273.171 591.141C273.171 587.718 275.943 584.947 279.366 584.947C282.789 584.947 285.561 587.718 285.561 591.141Z" fill="white"/>
<path d="M686.131 587.402C686.131 590.825 683.359 593.597 679.936 593.597C676.513 593.597 673.741 590.825 673.741 587.402C673.741 583.979 676.513 581.207 679.936 581.207C683.359 581.207 686.131 583.979 686.131 587.402Z" fill="white"/>
<path d="M792.185 404.483C792.185 407.905 789.413 410.677 785.99 410.677C782.567 410.677 779.795 407.905 779.795 404.483C779.795 401.06 782.567 398.288 785.99 398.288C789.413 398.269 792.185 401.06 792.185 404.483Z" fill="white"/>
<path d="M47.5964 319.543C51.0176 319.543 53.791 316.77 53.791 313.348C53.791 309.927 51.0176 307.154 47.5964 307.154C44.1752 307.154 41.4017 309.927 41.4017 313.348C41.4017 316.77 44.1752 319.543 47.5964 319.543Z" fill="white"/>
<path d="M222.795 597.466L239.91 604.423L247.611 577.822L222.795 597.466Z" fill="#FF7E3D"/>
<path d="M176.103 575.255L190.018 610.786L243.426 564.019L176.103 575.255Z" fill="url(#paint20_linear_21_68)"/>
<path d="M778.958 282.729L771.498 320.157L710.705 283.491L778.958 282.729Z" fill="#FF7E3D"/>
<path d="M165.053 140.4L142.414 156.268L169.648 170.35L165.053 140.4Z" fill="#FF7E3D"/>
<path d="M719.857 345.568L694.13 335.467L697.441 365.938L719.857 345.568Z" fill="url(#paint21_linear_21_68)"/>
<path d="M484.107 74.4166C459.086 60.5018 428.094 51.3494 399.67 59.4973C377.607 65.8222 360.958 82.3041 348.382 100.869C334.226 121.76 324.255 145.181 313.688 168.006C307.215 181.977 300.164 195.408 290.714 207.648C280.557 220.819 268.465 232.502 254.979 242.212C241.027 252.239 225.661 260.071 209.365 265.484C190.781 271.66 171.472 275.083 152.404 279.399C121.058 286.523 87.8156 297.592 67.297 323.971C58.2189 335.634 52.8241 349.772 52.5823 364.599C52.3219 379.816 57.1958 394.809 64.8786 407.831C82.3093 437.428 112.613 454.356 144.237 465.201C178.094 476.81 213.83 482.334 246.98 496.1C263.536 502.983 279.385 512.006 292.519 524.339C305.541 536.58 315.605 551.48 324.552 566.846C341.425 595.866 355.005 627.509 379.318 651.376C390.536 662.389 403.948 671.3 419.091 675.839C434.308 680.378 450.566 680.378 466.025 677.085C538.668 661.589 571 588.388 600.28 528.283C616.65 494.687 634.807 461.983 662.394 436.219C689.033 411.347 720.825 392.372 745.66 365.51C767.722 341.662 784.316 311.116 780.428 277.687C776.726 245.914 756.951 217.805 732.693 197.919C704.752 175.019 670.189 161.626 636.63 149.311C618.622 142.707 600.392 136.549 582.905 128.625C565.642 120.793 549.049 111.622 532.66 102.134C524.828 97.5955 517.052 92.982 509.239 88.4058C500.942 83.5505 492.329 79.3463 483.939 74.677C483.288 74.305 482.693 75.3095 483.344 75.6816C491.715 80.3322 499.677 85.7456 507.937 90.6009C515.75 95.1771 523.526 99.7906 531.358 104.33C547.374 113.612 563.596 122.579 580.431 130.28C613.823 145.572 649.503 155.152 682.801 170.704C713.849 185.195 743.055 204.653 761.695 234.083C770.252 247.588 776.354 262.842 778.028 278.803C779.777 295.453 776.428 312.102 769.322 327.189C754.44 358.795 726.704 381.341 699.711 402.306C685.387 413.43 670.914 424.462 657.837 437.056C645.187 449.222 634.304 462.969 624.854 477.74C605.582 507.857 592.095 541.119 575.557 572.725C559.41 603.568 539.654 634.448 510.597 654.651C483.753 673.309 448.39 683.317 416.561 672.379C385.234 661.608 364.529 633.09 348.754 605.484C332.012 576.166 318.097 544.002 292.556 520.972C267.331 498.24 234.162 487.487 201.98 478.893C167.974 469.815 132.462 462.374 102.474 442.99C76.0216 425.894 54.0333 396.316 55.075 363.594C56.1168 330.444 82.9046 307.135 111.255 294.634C145.279 279.622 183.452 278.301 218.052 264.982C247.035 253.82 272.726 234.585 291.83 210.141C308.796 188.451 318.358 162.612 330.282 138.056C340.569 116.868 352.233 95.1399 369.887 79.1045C388.117 62.5295 411.52 56.279 435.777 59.6647C452.501 61.99 468.406 67.9429 483.195 75.9978C484.2 76.5001 485.093 74.9746 484.107 74.4166Z" fill="url(#paint22_linear_21_68)"/>
<g opacity="0.4248">
<path opacity="0.4248" d="M493.78 20.5435C465.169 4.63822 429.713 -5.81643 397.214 3.52208C372.008 10.7585 352.977 29.603 338.616 50.8099C322.413 74.7329 311.01 101.539 298.899 127.657C291.477 143.674 283.403 159.04 272.595 173.066C260.969 188.153 247.11 201.565 231.632 212.671C215.653 224.168 198.036 233.134 179.378 239.329C158.115 246.398 135.996 250.304 114.176 255.271C78.3283 263.419 40.286 276.069 16.8095 306.242C6.44785 319.562 0.308989 335.709 0.011347 352.637C-0.286295 370.031 5.29449 387.145 14.0563 402.027C33.9797 435.865 68.6364 455.23 104.8 467.62C143.568 480.902 184.475 487.227 222.424 502.983C241.417 510.871 259.592 521.214 274.642 535.352C289.561 549.36 301.095 566.437 311.345 584.054C330.635 617.259 346.187 653.479 374.017 680.787C386.834 693.381 402.144 703.557 419.463 708.747C436.856 713.937 455.422 713.937 473.094 710.179C556.192 692.451 593.174 608.683 626.677 539.91C645.429 501.439 666.208 463.974 697.832 434.47C728.341 406.008 764.727 384.28 793.152 353.53C818.377 326.259 837.352 291.342 832.887 253.113C828.646 216.801 806.025 184.656 778.289 161.923C746.329 135.731 706.78 120.402 668.403 106.32C647.773 98.7488 626.882 91.6984 606.847 82.6203C587.091 73.6539 568.079 63.162 549.328 52.2795C540.361 47.0894 531.451 41.8063 522.521 36.5603C513.034 30.9981 503.212 26.1056 493.613 20.7667C492.962 20.3946 492.367 21.3992 493.018 21.7712C502.598 27.0916 511.769 33.2118 521.238 38.7554C530.167 44.0014 539.096 49.2659 548.044 54.4746C566.368 65.0967 584.933 75.3653 604.205 84.1829C642.434 101.688 683.285 112.645 721.402 130.448C756.97 147.06 790.417 169.346 811.792 203.054C821.595 218.531 828.59 236.036 830.506 254.341C832.515 273.446 828.664 292.514 820.498 309.833C803.439 346.033 771.685 371.854 740.786 395.87C724.378 408.612 707.822 421.225 692.847 435.642C678.374 449.557 665.929 465.295 655.121 482.186C633.058 516.675 617.618 554.755 598.68 590.937C580.171 626.282 557.55 661.645 524.251 684.787C493.483 706.161 452.929 717.639 416.449 705.082C380.546 692.73 356.791 660.064 338.709 628.402C319.548 594.862 303.624 558.047 274.4 531.687C245.547 505.681 207.598 493.384 170.783 483.562C131.848 473.163 91.1641 464.625 56.8423 442.451C26.5201 422.862 1.31353 388.931 2.4855 351.409C3.67606 313.404 34.389 286.654 66.8877 272.311C105.842 255.122 149.576 253.616 189.2 238.343C222.331 225.581 251.723 203.556 273.581 175.615C293.002 150.78 303.941 121.221 317.576 93.1309C329.371 68.8545 342.727 43.9827 362.948 25.6034C383.876 6.5915 410.701 -0.570504 438.549 3.33604C457.71 6.01482 475.922 12.8234 492.85 22.0689C493.892 22.6084 494.785 21.0829 493.78 20.5435Z" fill="url(#paint23_linear_21_68)"/>
</g>
<path d="M628.426 441.204C650.34 417.523 678.058 400.52 701.98 379.09C722.834 360.413 741.995 336.676 746.683 308.307C751.184 280.924 740.544 253.988 723.373 232.948C704.25 209.509 677.63 194.292 650.209 182.461C620.241 169.532 588.598 160.733 559.205 146.446C529.925 132.196 503.026 113.743 474.173 98.7675C452.315 87.4199 425.471 80.4811 401.158 87.4943C382.443 92.889 367.933 106.357 356.809 121.872C344.104 139.582 335.156 159.71 326.096 179.41C320.906 190.72 315.828 202.068 309 212.522C301.355 224.205 292.109 234.827 281.636 244.054C270.902 253.523 258.848 261.484 245.938 267.642C231.074 274.73 215.094 278.878 199.078 282.431C169.946 288.886 139.586 294.095 115.124 312.437C104.837 320.157 95.9447 329.979 90.7546 341.866C85.5645 353.735 84.5227 366.887 87.1457 379.537C92.7823 406.659 112.687 428.499 136.182 441.967C189.274 472.419 259.778 467.192 305.391 511.652C327.529 533.231 339.527 562.289 354.967 588.5C368.678 611.79 386.331 634.95 412.133 645.424C438.456 656.12 468.443 650.539 492.682 637.108C518.894 622.598 538.091 598.638 553.16 573.264C556.955 566.865 560.526 560.354 563.949 553.75C567.484 546.96 570.2 539.854 573.529 532.971C573.846 532.301 572.86 531.706 572.525 532.376C569.232 539.203 565.251 545.732 561.754 552.448C558.238 559.201 554.592 565.897 550.685 572.446C543.003 585.337 534.39 597.708 524.195 608.739C504.532 630.021 478.024 646.019 448.65 648.288C434.531 649.386 420.281 646.986 407.576 640.624C395.168 634.411 384.713 625.017 375.858 614.432C357.2 592.127 346.038 565.005 330.858 540.43C323.306 528.209 314.674 516.526 303.978 506.871C293.225 497.161 280.631 489.72 267.424 483.897C240.282 471.917 210.983 466.522 182.67 458.095C154.469 449.706 125.802 437.707 106.883 414.193C89.7501 392.893 81.6207 363.203 95.4611 338.071C108.892 313.683 136.182 300.699 161.928 293.611C192.046 285.314 223.614 282.171 251.704 267.605C275.404 255.327 295.886 236.892 310.619 214.643C323.194 195.668 330.951 173.755 341.146 153.478C350.149 135.601 360.548 117.482 375.877 104.237C391.763 90.5079 411.836 85.3178 432.54 87.9221C463.439 91.7915 489.557 110.227 515.806 125.555C529.627 133.629 543.561 141.553 557.978 148.548C571.874 155.301 586.198 160.789 600.708 166.053C654.693 185.716 720.546 208.43 740.86 268.516C745.343 281.761 746.664 295.936 744.041 309.702C741.362 323.729 734.982 336.751 726.778 348.359C709.254 373.212 684.252 390.81 660.738 409.487C648.889 418.9 637.355 428.722 627.179 439.939C626.417 440.795 627.663 442.041 628.426 441.204Z" fill="url(#paint24_linear_21_68)"/>
<defs>
<linearGradient id="paint0_linear_21_68" x1="690.511" y1="179.231" x2="709.132" y2="179.231" gradientUnits="userSpaceOnUse">
<stop offset="0.0277" stop-color="#FFD24D"/>
<stop offset="0.7154" stop-color="#F6BE56"/>
<stop offset="1" stop-color="#F2B45A"/>
</linearGradient>
<linearGradient id="paint1_linear_21_68" x1="682.925" y1="179.231" x2="716.717" y2="179.231" gradientUnits="userSpaceOnUse">
<stop offset="0.0277" stop-color="#FFD24D"/>
<stop offset="0.7154" stop-color="#F6BE56"/>
<stop offset="1" stop-color="#F2B45A"/>
</linearGradient>
<linearGradient id="paint2_linear_21_68" x1="473.795" y1="638.515" x2="498.235" y2="638.515" gradientUnits="userSpaceOnUse">
<stop offset="0.0277" stop-color="#FFD24D"/>
<stop offset="0.7154" stop-color="#F6BE56"/>
<stop offset="1" stop-color="#F2B45A"/>
</linearGradient>
<linearGradient id="paint3_linear_21_68" x1="722.584" y1="207.303" x2="767.092" y2="207.303" gradientUnits="userSpaceOnUse">
<stop offset="0.0277" stop-color="#FFD24D"/>
<stop offset="0.7154" stop-color="#F6BE56"/>
<stop offset="1" stop-color="#F2B45A"/>
</linearGradient>
<linearGradient id="paint4_linear_21_68" x1="96.2935" y1="448.416" x2="116.89" y2="448.416" gradientUnits="userSpaceOnUse">
<stop offset="0.0277" stop-color="#FFD24D"/>
<stop offset="0.7154" stop-color="#F6BE56"/>
<stop offset="1" stop-color="#F2B45A"/>
</linearGradient>
<linearGradient id="paint5_linear_21_68" x1="631.54" y1="144.534" x2="651.027" y2="142.827" gradientUnits="userSpaceOnUse">
<stop offset="0.0277" stop-color="#FFD24D"/>
<stop offset="0.7154" stop-color="#F6BE56"/>
<stop offset="1" stop-color="#F2B45A"/>
</linearGradient>
<linearGradient id="paint6_linear_21_68" x1="636.177" y1="143.615" x2="666.044" y2="140.998" gradientUnits="userSpaceOnUse">
<stop offset="0.0277" stop-color="#FFD24D"/>
<stop offset="0.7154" stop-color="#F6BE56"/>
<stop offset="1" stop-color="#F2B45A"/>
</linearGradient>
<linearGradient id="paint7_linear_21_68" x1="631.051" y1="159.637" x2="661.7" y2="156.951" gradientUnits="userSpaceOnUse">
<stop offset="0.0277" stop-color="#FFD24D"/>
<stop offset="0.7154" stop-color="#F6BE56"/>
<stop offset="1" stop-color="#F2B45A"/>
</linearGradient>
<linearGradient id="paint8_linear_21_68" x1="126.048" y1="373.91" x2="144.057" y2="373.91" gradientUnits="userSpaceOnUse">
<stop offset="0.0277" stop-color="#FFD24D"/>
<stop offset="0.1674" stop-color="#EBC34D"/>
<stop offset="0.4544" stop-color="#B69D4D"/>
<stop offset="0.8604" stop-color="#625F4E"/>
<stop offset="1" stop-color="#44494E"/>
</linearGradient>
<linearGradient id="paint9_linear_21_68" x1="131.141" y1="372.536" x2="158.62" y2="372.536" gradientUnits="userSpaceOnUse">
<stop offset="0.0277" stop-color="#FFD24D"/>
<stop offset="0.1674" stop-color="#EBC34D"/>
<stop offset="0.4544" stop-color="#B69D4D"/>
<stop offset="0.8604" stop-color="#625F4E"/>
<stop offset="1" stop-color="#44494E"/>
</linearGradient>
<linearGradient id="paint10_linear_21_68" x1="126.048" y1="388.523" x2="154.241" y2="388.523" gradientUnits="userSpaceOnUse">
<stop offset="0.0277" stop-color="#FFD24D"/>
<stop offset="0.1674" stop-color="#EBC34D"/>
<stop offset="0.4544" stop-color="#B69D4D"/>
<stop offset="0.8604" stop-color="#625F4E"/>
<stop offset="1" stop-color="#44494E"/>
</linearGradient>
<linearGradient id="paint11_linear_21_68" x1="678.255" y1="482.908" x2="702.785" y2="480.758" gradientUnits="userSpaceOnUse">
<stop offset="0.0277" stop-color="#FFD24D"/>
<stop offset="0.7154" stop-color="#F6BE56"/>
<stop offset="1" stop-color="#F2B45A"/>
</linearGradient>
<linearGradient id="paint12_linear_21_68" x1="684.179" y1="481.734" x2="721.968" y2="478.423" gradientUnits="userSpaceOnUse">
<stop offset="0.0277" stop-color="#FFD24D"/>
<stop offset="0.7154" stop-color="#F6BE56"/>
<stop offset="1" stop-color="#F2B45A"/>
</linearGradient>
<linearGradient id="paint13_linear_21_68" x1="677.631" y1="502.2" x2="716.419" y2="498.801" gradientUnits="userSpaceOnUse">
<stop offset="0.0277" stop-color="#FFD24D"/>
<stop offset="0.7154" stop-color="#F6BE56"/>
<stop offset="1" stop-color="#F2B45A"/>
</linearGradient>
<linearGradient id="paint14_linear_21_68" x1="632.421" y1="53.5323" x2="633.916" y2="81.1177" gradientUnits="userSpaceOnUse">
<stop offset="0.0277" stop-color="#FFD24D"/>
<stop offset="0.7154" stop-color="#F6BE56"/>
<stop offset="1" stop-color="#F2B45A"/>
</linearGradient>
<linearGradient id="paint15_linear_21_68" x1="632.052" y1="60.3394" x2="634.36" y2="102.928" gradientUnits="userSpaceOnUse">
<stop offset="0.0277" stop-color="#FFD24D"/>
<stop offset="0.7154" stop-color="#F6BE56"/>
<stop offset="1" stop-color="#F2B45A"/>
</linearGradient>
<linearGradient id="paint16_linear_21_68" x1="653.882" y1="49.7625" x2="656.251" y2="93.482" gradientUnits="userSpaceOnUse">
<stop offset="0.0277" stop-color="#FFD24D"/>
<stop offset="0.7154" stop-color="#F6BE56"/>
<stop offset="1" stop-color="#F2B45A"/>
</linearGradient>
<linearGradient id="paint17_linear_21_68" x1="114.721" y1="465.22" x2="150.586" y2="462.077" gradientUnits="userSpaceOnUse">
<stop offset="0.0277" stop-color="#FFD24D"/>
<stop offset="0.1674" stop-color="#EBC34D"/>
<stop offset="0.4544" stop-color="#B69D4D"/>
<stop offset="0.8604" stop-color="#625F4E"/>
<stop offset="1" stop-color="#44494E"/>
</linearGradient>
<linearGradient id="paint18_linear_21_68" x1="123.537" y1="463.473" x2="179.135" y2="458.601" gradientUnits="userSpaceOnUse">
<stop offset="0.0277" stop-color="#FFD24D"/>
<stop offset="0.1674" stop-color="#EBC34D"/>
<stop offset="0.4544" stop-color="#B69D4D"/>
<stop offset="0.8604" stop-color="#625F4E"/>
<stop offset="1" stop-color="#44494E"/>
</linearGradient>
<linearGradient id="paint19_linear_21_68" x1="113.791" y1="493.931" x2="170.877" y2="488.929" gradientUnits="userSpaceOnUse">
<stop offset="0.0277" stop-color="#FFD24D"/>
<stop offset="0.1674" stop-color="#EBC34D"/>
<stop offset="0.4544" stop-color="#B69D4D"/>
<stop offset="0.8604" stop-color="#625F4E"/>
<stop offset="1" stop-color="#44494E"/>
</linearGradient>
<linearGradient id="paint20_linear_21_68" x1="176.101" y1="587.404" x2="243.426" y2="587.404" gradientUnits="userSpaceOnUse">
<stop offset="0.0277" stop-color="#FFD24D"/>
<stop offset="0.7154" stop-color="#FFBE56"/>
<stop offset="1" stop-color="#FFB45A"/>
</linearGradient>
<linearGradient id="paint21_linear_21_68" x1="690.993" y1="338.719" x2="709.369" y2="356.442" gradientUnits="userSpaceOnUse">
<stop offset="0.0277" stop-color="#FFD24D"/>
<stop offset="0.7154" stop-color="#F6BE56"/>
<stop offset="1" stop-color="#F2B45A"/>
</linearGradient>
<linearGradient id="paint22_linear_21_68" x1="93.8577" y1="492.238" x2="771.525" y2="245.587" gradientUnits="userSpaceOnUse">
<stop offset="0.0277" stop-color="#FFD24D"/>
<stop offset="0.0356" stop-color="#F7CC4C"/>
<stop offset="0.0797" stop-color="#CEAE4A"/>
<stop offset="0.1292" stop-color="#A89348"/>
<stop offset="0.1831" stop-color="#887B45"/>
<stop offset="0.2427" stop-color="#6C6744"/>
<stop offset="0.3099" stop-color="#565742"/>
<stop offset="0.3884" stop-color="#454B41"/>
<stop offset="0.4856" stop-color="#3A4241"/>
<stop offset="0.6218" stop-color="#333D40"/>
<stop offset="1" stop-color="#313C40"/>
</linearGradient>
<linearGradient id="paint23_linear_21_68" x1="0.00911469" y1="356.427" x2="833.552" y2="356.427" gradientUnits="userSpaceOnUse">
<stop stop-color="#5C5A44"/>
<stop offset="0.6103" stop-color="#3F4541"/>
<stop offset="1" stop-color="#313C40"/>
</linearGradient>
<linearGradient id="paint24_linear_21_68" x1="258.048" y1="168.169" x2="612.794" y2="522.915" gradientUnits="userSpaceOnUse">
<stop stop-color="#313C40"/>
<stop offset="0.251" stop-color="#333E40"/>
<stop offset="0.397" stop-color="#3C4441"/>
<stop offset="0.5161" stop-color="#4A4E42"/>
<stop offset="0.6208" stop-color="#5E5D43"/>
<stop offset="0.716" stop-color="#786F44"/>
<stop offset="0.8042" stop-color="#988746"/>
<stop offset="0.8873" stop-color="#BDA249"/>
<stop offset="0.964" stop-color="#E8C14C"/>
<stop offset="1" stop-color="#FFD24D"/>
</linearGradient>
</defs>
</svg>
