<svg width="16" height="15" viewBox="0 0 16 15" fill="none" xmlns="http://www.w3.org/2000/svg">
<path d="M1.02734 7.02734L8.40625 0.623047C8.46289 0.574219 8.53516 0.546875 8.61133 0.546875H10.3398C10.4844 0.546875 10.5508 0.726562 10.4414 0.820312L3.60156 6.75781H15.0312C15.1172 6.75781 15.1875 6.82812 15.1875 6.91406V8.08594C15.1875 8.17188 15.1172 8.24219 15.0312 8.24219H3.60351L10.4434 14.1797C10.5527 14.2754 10.4863 14.4531 10.3418 14.4531H8.55469C8.51758 14.4531 8.48047 14.4395 8.45312 14.4141L1.02734 7.97266C0.959728 7.91386 0.905515 7.84124 0.868363 7.7597C0.831213 7.67816 0.811989 7.5896 0.811989 7.5C0.811989 7.4104 0.831213 7.32184 0.868363 7.2403C0.905515 7.15876 0.959728 7.08614 1.02734 7.02734Z" fill="#969696"/>
</svg>
