<svg width="665" height="531" viewBox="0 0 665 531" fill="none" xmlns="http://www.w3.org/2000/svg">
<g opacity="0.05">
<path d="M108.803 300.527C108.927 303.789 108.841 307.055 108.544 310.306C108.684 308.131 108.704 305.955 108.744 303.8L108.803 300.527Z" fill="#EBEBEB"/>
<path d="M133.71 510.114C133.251 511.052 134.807 511.81 135.306 510.932C149.365 486.758 158.393 459.993 161.849 432.242C172.469 420.397 180.37 406.372 184.999 391.151H185.119C198.15 389.295 211.921 385.863 219.265 373.948C226.09 362.852 227.248 347.067 228.405 334.494L228.625 334.274C228.704 334.175 228.745 334.052 228.742 333.926C228.74 333.799 228.692 333.678 228.609 333.583C228.526 333.488 228.412 333.425 228.287 333.405C228.162 333.386 228.034 333.411 227.926 333.476C217.758 341.081 208.396 349.707 199.987 359.22C192.722 367.682 190.008 377.421 186.017 387.419C190.958 369.271 193.368 350.528 193.181 331.72C193.278 331.635 193.347 331.523 193.379 331.398C193.411 331.274 193.405 331.142 193.361 331.021L193.181 330.442V329.824C193.181 329.824 193.181 329.824 193.181 329.664C201.663 320.524 208.728 313.559 209.446 300.627C210.324 284.661 203.259 271.969 196.933 257.899C196.876 257.781 196.787 257.682 196.675 257.612C196.564 257.542 196.436 257.505 196.304 257.505C196.173 257.505 196.045 257.542 195.934 257.612C195.822 257.682 195.733 257.781 195.676 257.899C190.467 268.955 183.961 280.73 183.063 293.123C182.085 306.255 187.054 319.466 191.824 331.48C191.893 331.635 192.012 331.762 192.163 331.839C188.691 366.784 180.908 399.114 162.228 428.949C168.215 376.842 155.463 323.438 133.889 273.905V273.805C164.503 262.31 156.261 232.674 152.25 206.89C152.21 206.44 152.143 205.994 152.05 205.553C152.05 205.413 152.05 205.373 151.851 205.433C151.651 205.493 135.706 226.767 132.473 238.641C129.878 248.34 131.036 258.977 131.754 269.155C127.443 259.536 122.813 250.056 117.904 240.796V239.08C117.941 239.072 117.976 239.054 118.005 239.029C118.033 239.003 118.055 238.971 118.067 238.935C118.079 238.898 118.081 238.86 118.074 238.822C118.066 238.784 118.049 238.75 118.024 238.721V238.581C118.403 227.266 118.762 215.97 114.032 205.353C108.584 193.099 98.2465 183.041 88.5874 173.981C88.5874 173.821 87.9288 174.081 87.9488 174.12C86.5917 186.913 83.9574 202.719 89.5453 214.892C94.6742 226.108 107.127 232.355 116.148 239.918L116.367 240.038C133.271 280.71 151.212 321.242 157.878 364.908C138.768 352.45 121.934 336.81 108.105 318.668C115.769 311.523 120.937 303.561 120.319 292.724C119.332 278.004 113.747 263.966 104.353 252.591C104.267 252.49 104.146 252.425 104.014 252.411C103.888 252.375 103.754 252.375 103.628 252.412C103.502 252.448 103.388 252.519 103.301 252.617C103.213 252.715 103.155 252.836 103.133 252.965C103.111 253.095 103.126 253.228 103.176 253.349C94.0356 273.306 94.1554 290.449 101.06 309.228C93.6027 298.408 86.8436 287.123 80.8242 275.441C86.8112 253.07 66.6947 241.275 53.184 226.607C52.8048 226.188 52.0265 226.607 52.3258 227.166C52.4456 227.365 52.5853 227.545 52.705 227.725C50.1904 251.014 59.2908 269.215 80.6446 280.091C80.7819 280.159 80.931 280.2 81.0836 280.211C89.311 300.363 101.337 318.744 116.507 334.354C111.383 330.625 105.59 327.915 99.4439 326.371C87.3102 323.537 76.8528 328.646 65.5173 332.239C65.4188 332.216 65.3164 332.216 65.2179 332.239H65.0383C64.8485 332.291 64.6795 332.401 64.5543 332.553C64.429 332.705 64.3537 332.891 64.3384 333.088C64.3231 333.284 64.3687 333.48 64.469 333.65C64.5692 333.819 64.7192 333.954 64.8986 334.035H64.9984C82.321 345.35 106.369 360.537 124.869 342.756L126.106 343.514C135.84 352.598 146.403 360.749 157.658 367.862C157.833 367.972 158.031 368.04 158.237 368.061C158.776 371.893 159.255 375.745 159.594 379.636C162.283 411.462 158.446 443.502 148.318 473.792C133.291 452.778 122.754 432.422 117.325 406.718C122.734 385.823 111.099 369.917 96.7098 355.189C96.6542 355.097 96.5715 355.025 96.4731 354.982C96.3746 354.939 96.2654 354.928 96.1603 354.95C96.0552 354.972 95.9595 355.026 95.8864 355.104C95.8133 355.183 95.7663 355.282 95.7519 355.389C93.7562 365.367 90.6031 378.339 94.2551 388.198C97.9073 398.056 107.407 404.442 115.988 409.312H116.188C118.043 420.758 121.245 431.945 125.727 442.64C121.103 434.994 114.728 428.557 107.127 423.86C97.3684 418.193 87.6694 418.492 76.6931 419.33C75.815 419.33 90.1839 457.927 126.944 446.591L128.162 448.068C133.074 458.59 139.524 468.322 147.3 476.946C143.473 488.277 138.934 499.355 133.71 510.114ZM125.947 445.374C115.809 445.554 105.052 446.352 96.0113 440.764C87.7093 435.615 84.2967 428.79 78.2298 421.047C89.2859 421.665 98.1866 420.288 108.544 427.293C115.749 431.983 120.698 438.808 125.947 445.374ZM115.749 406.797C106.688 401.609 97.9671 394.344 96.1111 383.747C94.5545 374.846 96.3506 365.786 96.7298 356.726C101.699 363.232 106.708 369.857 110.999 376.682C117.265 386.661 116.986 395.202 116.188 405.939C116.037 405.993 115.91 406.099 115.829 406.238C115.749 406.377 115.72 406.54 115.749 406.698V406.797ZM79.0081 276.18C71.2454 271.722 64.6785 265.45 59.8695 257.899C54.3614 248.739 55.1996 239.2 53.5831 229.181C57.5745 234.989 62.8431 239.28 67.8722 244.269C77.0723 253.309 81.0437 263.447 79.0081 276.18ZM107.766 315.535L107.387 315.974C104.72 306.253 102.97 296.305 102.158 286.258C101.579 276.559 103.635 267.119 104.154 257.52C106.224 267.171 107.558 276.964 108.145 286.817C108.365 291.127 108.784 295.817 108.943 300.527C108.943 295.957 108.943 291.387 108.784 286.817C108.34 276.338 106.788 265.936 104.154 255.784C104.164 255.638 104.164 255.491 104.154 255.345C107.427 266.481 113.973 276.339 114.811 288.194C115.425 297.641 113.044 307.041 108.005 315.056C108.277 313.491 108.45 311.912 108.524 310.326C108.394 312.078 108.14 313.818 107.766 315.535ZM103.775 256.003C103.765 256.176 103.765 256.349 103.775 256.522C101.94 266.611 101.204 276.869 101.579 287.116C102.562 296.981 104.391 306.742 107.047 316.293L106.808 316.572C102.817 305.217 97.548 293.901 98.2864 281.568C98.7854 272.967 101.779 264.465 103.775 256.003ZM109.961 312.781C113.8 305.941 115.717 298.19 115.509 290.349C115.29 277.996 108.884 267.758 104.892 256.423C109.362 264.924 113.653 272.867 115.988 282.506C119.241 295.857 116.946 303.82 109.961 312.781ZM123.153 341.997C114.372 346.647 105.83 349.741 95.4526 347.865C85.075 345.989 76.6333 339.303 68.1316 333.616C78.3895 331.241 87.7891 326.511 98.6656 329.026C108.085 331.261 115.25 337.028 123.153 341.997ZM115.17 229.141C110.412 210.096 101.927 192.182 90.2039 176.435C98.1866 185.097 105.611 193.538 110.54 204.495C114.232 212.677 114.332 220.879 115.13 229.141H115.17ZM115.469 235.588C108.481 215.496 99.968 195.968 90.0043 177.174C101.977 194.182 110.704 213.254 115.749 233.432C115.888 234.41 116.048 235.428 116.228 236.386L115.469 235.588ZM95.7918 208.486C91.7007 198.168 90.9822 186.534 89.0464 175.737C98.9712 195.056 107.722 214.956 115.25 235.328C107.946 226.986 99.7832 218.764 95.7918 208.486ZM115.23 236.106C106.968 229.441 96.9693 223.354 92.6187 213.396C88.0486 202.878 88.6273 186.574 88.6273 175.058C90.1041 186.474 91.1818 199.007 95.6521 209.624C99.7832 219.642 107.866 228.024 115.19 236.106H115.23ZM136.624 248.46C138.42 233.991 146.263 222.516 151.392 209.284C151.394 219.81 149.95 230.285 147.101 240.417C144.147 251.154 138.599 260.813 134.109 270.931C134.468 264.445 135.067 258.019 136.105 251.573C136.105 251.573 136.105 251.573 135.985 251.573C134.708 257.574 133.907 263.666 133.59 269.794C133.311 258.837 133.111 246.324 136.364 236.266C139.896 225.37 146.462 217.127 151.392 207.389V207.887C145.145 220.56 138.12 234.35 136.584 248.46H136.624ZM152.05 213.875C152.809 224.132 153.747 234.61 151.312 244.588C148.495 255.312 142.481 264.925 134.069 272.148C139.731 262.146 144.294 251.561 147.68 240.577C149.059 235.248 150.093 229.835 150.773 224.372C151.212 220.899 151.791 217.327 152.05 213.875ZM133.969 273.067C133.969 272.827 133.969 272.608 133.969 272.388C142.069 265.758 148.021 256.875 151.072 246.863C153.168 239.63 153.966 232.083 153.427 224.571C154.064 229.2 154.364 233.869 154.325 238.541C153.986 254.287 146.821 264.565 133.969 272.967V273.067ZM192.802 329.205C188.97 317.47 184.4 303.8 185.977 291.606C186.615 286.537 195.776 261.671 196.434 261.292C196.434 261.292 206.732 285.839 206.552 298.372C206.333 311.883 198.071 318.069 192.802 329.105V329.205ZM186.156 389.076C191.585 379.456 193.999 369.119 201.503 360.378C209.486 351.238 218.686 343.434 227.567 335.292C225.052 345.55 224.054 356.366 220.283 366.245C214.395 381.632 200.885 385.903 186.156 389.036V389.076Z" fill="#EBEBEB"/>
<path d="M78.1297 274.523C78.4291 275.242 78.7484 275.98 79.0478 276.719C79.0478 276.918 79.4469 276.858 79.387 276.719C79.3271 276.579 79.1076 275.9 78.9879 275.501L79.6065 276.14C79.6065 276.818 79.8261 277.497 79.9059 278.136H80.0456C80.0456 277.517 79.866 276.918 79.7662 276.319L80.6044 277.198C80.305 276.858 79.9857 276.539 79.6864 276.22C76.9323 258.618 66.8741 243.87 55.1794 230.758C54.88 230.279 54.6006 229.76 54.2813 229.281C54.2813 229.281 54.2813 229.281 54.1416 229.281C54.1252 229.257 54.103 229.236 54.0769 229.222C54.0508 229.208 54.0216 229.201 53.9919 229.201C53.9623 229.201 53.9331 229.208 53.907 229.222C53.8809 229.236 53.8586 229.257 53.8423 229.281L53.503 228.902C53.4032 228.902 53.2435 228.902 53.3234 229.042L53.942 229.94C55.9159 238.816 58.9093 247.435 62.8627 255.624C66.6945 262.928 72.4221 268.616 78.1297 274.523ZM55.4987 231.836C62.9625 246.005 71.6837 259.516 78.01 274.264C72.462 268.417 67.0337 262.469 63.4016 255.205C59.743 247.346 56.8299 239.161 54.7004 230.758L55.4987 231.836ZM78.928 275.222C76.4933 267.718 72.3422 260.893 68.5305 254.068C64.9183 247.602 61.366 241.096 57.654 234.69C61.9248 240.218 66.4949 245.526 70.3266 251.393C75.0894 258.827 78.2437 267.175 79.5866 275.9L78.928 275.222Z" fill="#EBEBEB"/>
<path d="M66.0362 334.314L68.3712 333.795C72.1231 337.108 77.4316 339.223 81.882 341.219C86.37 343.315 91.124 344.785 96.0114 345.59C105.202 346.902 114.576 345.516 122.993 341.598L124.111 342.097V341.938V341.798L123.432 341.578L123.233 341.459L124.55 340.84L123.153 341.459C114.486 336.502 105.037 333.06 95.2131 331.281C86.1128 329.943 76.9925 331.44 68.0718 333.276L67.6328 332.977L67.9321 333.236H67.5529L65.9564 333.596C65.6371 333.935 65.8566 334.374 66.0362 334.314ZM121.257 340.92C104.923 335.579 87.8085 333.015 70.6263 333.336C78.6838 331.439 87.0081 330.946 95.2331 331.879C104.274 333.236 112.895 337.208 121.257 340.92ZM68.7104 333.735H68.93C87.1996 333.54 105.385 336.234 122.813 341.718H122.933C104.473 349.581 84.9354 344.672 68.7104 333.735Z" fill="#EBEBEB"/>
<path d="M115.47 408.354C115.47 408.613 115.869 408.613 115.889 408.354C115.909 408.095 115.889 407.516 115.889 407.117L116.926 408.194C116.957 408.213 116.993 408.221 117.029 408.217C117.064 408.213 117.097 408.196 117.123 408.171C117.148 408.146 117.164 408.113 117.168 408.077C117.173 408.041 117.165 408.005 117.146 407.975L115.889 406.598C116.208 388.956 108.884 373.31 98.606 359.44C98.1271 358.442 97.6281 357.444 97.1093 356.466C97.1093 356.466 96.9695 356.466 96.9895 356.466C97.229 357.045 97.4884 357.604 97.7279 358.182L97.0893 357.324C97.0893 357.165 97.0893 357.005 97.0893 356.845V357.165L96.7899 356.785C96.7899 356.686 96.5904 356.786 96.6303 356.885C96.6702 356.985 96.9296 357.324 97.0893 357.524C97.0893 366.844 97.2689 376.323 100.582 385.144C103.635 393.267 109.383 400.072 115.31 406.318C115.31 406.478 115.31 406.638 115.31 406.797C115.31 406.957 115.45 406.797 115.45 406.797V406.538C115.47 407.216 115.49 407.775 115.47 408.354ZM115.47 406.099L115.23 405.859C113.838 398.629 111.671 391.57 108.764 384.805C111.533 391.547 113.658 398.537 115.11 405.68C109.123 399.014 103.356 392.189 100.522 383.408C97.8676 375.186 97.5683 366.385 97.1492 357.803L98.2667 359.44C100.961 365.706 103.855 371.893 106.249 378.259C104.094 372.531 101.959 366.824 99.4043 361.316C104.063 367.539 107.918 374.325 110.879 381.512C113.767 389.395 115.318 397.705 115.47 406.099Z" fill="#EBEBEB"/>
<path d="M77.8302 421.306L78.4888 421.446C90.2434 435.296 108.664 445.793 127.144 445.234C127.144 445.234 127.144 445.114 127.144 445.095C116.946 443.937 107.965 442.121 98.8248 437.112C91.3906 433.024 84.6871 427.73 78.9877 421.446L80.2051 421.665C95.7391 427.177 110.585 434.463 124.449 443.378L125.327 444.216L124.789 443.658C125.268 443.977 125.747 444.256 126.226 444.596C126.226 444.596 126.405 444.596 126.226 444.456C125.347 443.757 124.429 443.099 123.511 442.46C117.644 436.473 111.537 430.746 103.555 427.253C95.7014 424.06 87.4499 421.952 79.0276 420.987L78.0497 420.687L77.451 420.029C77.3512 420.029 77.1916 420.029 77.2914 420.208C77.3911 420.388 77.5109 420.468 77.6306 420.607C77.6047 420.618 77.5825 420.636 77.5668 420.659C77.5511 420.682 77.5428 420.709 77.5428 420.737C77.5428 420.765 77.5511 420.792 77.5668 420.816C77.5825 420.839 77.6047 420.857 77.6306 420.867C77.6506 420.947 77.6306 421.266 77.8302 421.306ZM83.6177 422.384C90.3896 423.4 97.0157 425.223 103.355 427.812C110.659 431.065 116.706 436.314 122.534 441.782C110.594 433.473 97.5124 426.939 83.6975 422.384H83.6177Z" fill="#EBEBEB"/>
<path d="M192.463 329.904C192.454 329.751 192.454 329.597 192.463 329.445C192.502 329.438 192.539 329.422 192.57 329.397C192.602 329.373 192.627 329.341 192.643 329.305C197.712 319.326 202.322 307.352 202.94 296.097C203.024 290.469 202.414 284.852 201.124 279.373C199.926 272.692 198.334 266.088 196.355 259.596C196.331 259.53 196.284 259.475 196.222 259.442C196.16 259.41 196.089 259.401 196.021 259.419C195.953 259.436 195.895 259.478 195.857 259.537C195.819 259.596 195.804 259.666 195.816 259.735C196.035 260.773 196.255 261.831 196.494 262.869C196.494 274.204 196.853 285.559 195.756 296.795C194.738 307.392 192.862 317.85 192.323 328.507L192.144 328.946C192.124 328.98 192.111 329.019 192.108 329.059C192.104 329.099 192.109 329.139 192.122 329.177C192.135 329.215 192.157 329.25 192.184 329.279C192.212 329.308 192.246 329.33 192.283 329.345C192.283 329.524 192.283 329.684 192.283 329.844C192.283 330.003 192.463 330.023 192.463 329.904ZM192.583 328.068C193.221 317.61 195.317 307.292 196.295 296.875C197.219 285.762 197.346 274.598 196.674 263.467C199.049 273.625 202.182 283.903 202.142 294.341C202.082 305.876 197.153 317.65 192.583 328.068Z" fill="#EBEBEB"/>
<path d="M191.963 330.243C191.504 318.867 187.074 308.43 188.092 296.895C188.807 287.003 191.119 277.291 194.937 268.137C194.937 268.137 195.097 268.137 195.077 268.137C191.168 278.077 188.942 288.599 188.491 299.27C187.972 309.767 191.824 319.746 192.203 330.183C192.211 330.215 192.206 330.248 192.189 330.276C192.172 330.305 192.145 330.325 192.113 330.333C192.081 330.341 192.048 330.336 192.02 330.319C191.992 330.302 191.971 330.275 191.963 330.243Z" fill="#EBEBEB"/>
<path d="M182.604 389.195C183.382 389.195 184.161 389.016 184.939 388.916C184.939 389.016 184.939 389.136 185.158 389.056L185.538 388.816H186.057C186.057 388.916 185.917 389.016 185.857 389.136C185.797 389.255 186.057 389.555 186.236 389.335C186.416 389.116 186.535 388.916 186.695 388.697C198.488 386.117 208.966 379.398 216.231 369.757C223.835 359.779 224.633 346.308 228.425 334.773C228.444 334.721 228.442 334.664 228.42 334.613C228.399 334.562 228.359 334.522 228.308 334.499C228.258 334.476 228.201 334.473 228.149 334.491C228.096 334.508 228.052 334.545 228.026 334.594C227.667 335.392 227.347 336.19 227.028 337.008C227.168 336.509 227.347 336.03 227.487 335.531C227.487 335.531 227.387 335.412 227.347 335.531C222.578 346.168 217.828 356.466 210.564 365.706C204.128 373.708 196.597 380.762 188.192 386.661C194.179 378.159 199.328 369.059 206.033 360.917C213.078 352.375 220.263 343.973 227.327 335.452L227.208 335.332C219.085 343.594 211.901 352.954 204.556 361.934C197.971 369.917 192.882 378.958 186.994 387.499L186.116 388.138C184.959 388.337 183.781 388.517 182.624 388.617C182.165 388.517 182.145 389.215 182.604 389.195ZM187.453 387.579C203.758 376.842 218.766 359.639 225.631 341.139C223.216 349.481 222.398 358.362 217.868 365.926C214.464 371.401 210.013 376.149 204.77 379.899C199.527 383.649 193.595 386.327 187.314 387.779L187.453 387.579Z" fill="#EBEBEB"/>
<path d="M101.779 476.527C101.779 476.527 102.937 486.924 104.553 501.692C108.365 536.497 114.791 595.489 114.791 599.121H172.526C172.526 595.529 178.912 536.497 182.724 501.692C184.321 486.924 185.478 476.527 185.478 476.527H101.779Z" fill="#DBDBDB"/>
<path d="M101.779 476.527C101.779 476.527 102.937 486.924 104.553 501.692H182.804C184.401 486.924 185.558 476.527 185.558 476.527H101.779Z" fill="#C7C7C7"/>
<path d="M96.57 490.736H190.826V472.376H96.57V490.736Z" fill="#DBDBDB"/>
<path d="M133.39 163.104L137.282 170.987L145.963 172.245L139.677 178.371L141.153 187.033L133.39 182.941L125.607 187.033L127.104 178.371L120.817 172.245L129.499 170.987L133.39 163.104Z" fill="#C7C7C7"/>
<path d="M220.163 125.506L222.557 130.375L227.946 131.153L224.054 134.945L224.972 140.294L220.163 137.759L215.353 140.294L216.271 134.945L212.399 131.153L217.768 130.375L220.163 125.506Z" fill="#C7C7C7"/>
<path d="M171.049 38.5536L172.526 41.5671L175.838 42.0461L173.444 44.401L174.002 47.6939L171.049 46.1372L168.075 47.6939L168.634 44.401L166.239 42.0461L169.552 41.5671L171.049 38.5536Z" fill="#C7C7C7"/>
<path d="M626.863 325.154V599.042H792.505V325.154H626.863ZM777.438 498H641.911V426.694H777.438V498ZM777.438 409.711H641.911V338.405H777.438V409.711Z" fill="#EBEBEB"/>
<path d="M674.122 338.385H641.911V409.691H674.122V338.385Z" fill="#DBDBDB"/>
<path d="M778.436 582.917H641.752V512.928H778.436V582.917ZM643.748 580.921H776.441V514.924H643.748V580.921Z" fill="#DBDBDB"/>
<path d="M674.122 426.694H641.911V498H674.122V426.694Z" fill="#DBDBDB"/>
<path d="M543.364 387.499C545.998 395.143 543.124 407.456 549.131 407.196C554.48 407.017 555.637 398.356 555.637 398.356C555.637 398.356 557.493 408.534 563.181 406.718C568.869 404.901 568.23 395.143 568.23 395.143C568.23 395.143 569.388 403.684 574.936 401.469C580.484 399.254 581.461 390.852 581.461 390.852C581.461 390.852 583.457 393.067 586.69 389.734C591.3 384.965 589.344 370.755 586.55 363.571C583.757 356.386 568.27 332.179 565.835 328.507L519.615 345.989C519.615 345.989 518.677 361.036 519.136 368.72C519.595 376.403 528.117 401.309 534.443 399.613C540.769 397.917 534.443 380.434 533.824 375.804C533.206 371.174 534.184 370.256 536.08 372.132C537.317 373.41 542.206 384.186 543.364 387.499Z" fill="#AD6359"/>
<path d="M555.498 397.976C556.256 385.803 554.5 380.335 548.732 369.777C548.612 369.578 548.892 369.358 549.032 369.578C555.617 379.377 558.83 385.923 556.076 398.056C555.957 398.635 555.458 398.555 555.498 397.976Z" fill="#263238"/>
<path d="M568.071 395.721C567.772 382.989 565.896 377.042 560.688 365.547C560.688 365.387 560.867 365.247 560.967 365.407C566.954 376.243 570.087 382.849 568.71 395.602C568.65 396.18 568.091 396.3 568.071 395.721Z" fill="#263238"/>
<path d="M581.342 390.772C580.164 378.479 578.388 371.873 571.902 361.376C571.885 361.352 571.873 361.325 571.866 361.297C571.86 361.269 571.859 361.239 571.863 361.211C571.868 361.182 571.878 361.154 571.893 361.129C571.909 361.105 571.929 361.083 571.952 361.066C571.976 361.049 572.003 361.037 572.031 361.03C572.059 361.023 572.088 361.022 572.117 361.027C572.146 361.032 572.173 361.042 572.198 361.057C572.223 361.073 572.245 361.092 572.262 361.116C579.945 371.095 582.24 379.397 581.721 390.712C581.681 391.49 581.422 391.49 581.342 390.772Z" fill="#263238"/>
<path d="M488.503 184.179C519.656 222.735 561.825 317.231 566.874 330.682C570.306 339.822 522.41 359.041 520.973 352.475C519.177 344.093 487.864 239.719 480.5 200.803C476.489 179.209 482.057 176.216 488.503 184.179Z" fill="#AD6359"/>
<path d="M480.121 210.602C485.25 246.225 515.864 345.051 515.864 345.051L552.166 331.241L570.486 324.256C570.486 324.256 518.598 225.569 496.785 192.88C495.089 190.365 493.532 188.19 492.095 186.374C478.325 168.852 476.17 183.161 480.121 210.602Z" fill="#455A64"/>
<path d="M552.385 314.078C551.719 311.553 551.719 308.899 552.385 306.375C553.051 308.899 553.051 311.553 552.385 314.078Z" fill="#252525"/>
<path d="M486.447 189.467C486.095 188.208 485.927 186.903 485.948 185.596C485.927 184.294 486.095 182.997 486.447 181.744C486.789 182.999 486.957 184.295 486.946 185.596C486.957 186.903 486.789 188.206 486.447 189.467Z" fill="#252525"/>
<path d="M527.06 294.36C529.584 293.695 532.238 293.695 534.763 294.36C532.238 295.026 529.584 295.026 527.06 294.36Z" fill="#252525"/>
<path d="M508.221 245.067C510.752 244.402 513.413 244.402 515.944 245.067C514.693 245.428 513.394 245.596 512.092 245.566C510.784 245.587 509.48 245.419 508.221 245.067Z" fill="#252525"/>
<path d="M537.497 273.346C536.367 272.701 535.333 271.902 534.424 270.971C533.486 270.068 532.686 269.033 532.049 267.898C534.301 269.218 536.177 271.094 537.497 273.346Z" fill="#252525"/>
<path d="M499.279 212.817C498.149 212.172 497.115 211.373 496.206 210.442C495.268 209.539 494.468 208.504 493.831 207.369C494.966 208.006 496.002 208.806 496.904 209.743C497.835 210.652 498.635 211.687 499.279 212.817Z" fill="#252525"/>
<path d="M510.735 312.421C508.472 311.109 506.588 309.232 505.267 306.973C506.408 307.61 507.45 308.41 508.36 309.348C509.286 310.261 510.085 311.295 510.735 312.421Z" fill="#252525"/>
<path d="M512.092 271.749C511.442 272.882 510.644 273.922 509.717 274.843C508.802 275.775 507.761 276.574 506.624 277.218C507.936 274.947 509.822 273.062 512.092 271.749Z" fill="#252525"/>
<path d="M536.08 325.633C534.767 327.896 532.89 329.78 530.632 331.101C531.27 329.961 532.07 328.919 533.007 328.008C533.916 327.077 534.95 326.277 536.08 325.633Z" fill="#252525"/>
<path d="M496.546 226.487C495.225 228.739 493.35 230.615 491.098 231.935C492.418 229.683 494.294 227.808 496.546 226.487Z" fill="#252525"/>
<path d="M513.849 334.394C535.402 324.236 559.57 316.852 563.741 315.255C563.762 315.249 563.784 315.246 563.806 315.248C563.828 315.25 563.849 315.257 563.868 315.267C563.888 315.277 563.905 315.291 563.919 315.308C563.933 315.325 563.944 315.344 563.95 315.365C563.957 315.386 563.959 315.408 563.957 315.43C563.955 315.452 563.949 315.473 563.939 315.493C563.929 315.512 563.915 315.529 563.898 315.543C563.881 315.557 563.862 315.568 563.841 315.575C559.71 316.932 533.007 328.367 513.948 334.733C513.729 334.813 513.649 334.494 513.849 334.394Z" fill="#263238"/>
<path d="M548.633 332.578L515.864 345.051C515.864 345.051 485.25 246.225 480.121 210.602C477.527 192.64 477.567 180.267 481.778 178.85L548.633 332.578Z" fill="#263238"/>
<path d="M447.691 332.478L450.505 552.542L452.162 682.262L530.911 680.705L515.505 328.088L514.726 287.715H448.23L447.691 332.478Z" fill="#DBDBDB"/>
<path d="M492.534 346.069C492.534 345.909 492.793 345.909 492.793 346.069C492.793 366.644 493.432 387.24 493.931 407.815C494.43 428.391 495.029 448.986 495.587 469.582C496.705 510.713 498.361 551.844 499.878 592.975C500.73 616.045 501.794 639.108 503.071 662.165C503.071 662.305 502.852 662.305 502.832 662.165C499.858 621.074 496.984 579.983 495.368 538.812C493.751 497.641 492.554 456.53 492.354 415.359C492.255 392.269 492.574 369.179 492.534 346.069Z" fill="#263238"/>
<path d="M447.691 332.478L450.505 552.542L503.291 287.715H448.23L447.691 332.478Z" fill="#263238"/>
<path d="M507.961 287.715C507.681 289.092 503.031 310.665 498.202 329.205C494.689 342.736 491.097 354.65 489.022 355.867C486.946 357.085 475.251 362.314 471.42 363.85L453.957 530.989L430.528 681.344L351.958 677.233L414.962 287.715H507.961Z" fill="#DBDBDB"/>
<path d="M385.166 624.187C387.082 613.451 389.018 602.714 390.974 591.977C394.965 570.49 398.957 549.017 402.948 527.556C411.01 484.583 418.993 441.595 426.896 398.595C431.327 374.288 431.207 376.643 435.058 352.175C435.058 352.016 435.358 352.036 435.338 352.175C431.626 373.849 433.342 369.099 429.89 390.812C426.437 412.525 422.745 433.779 418.893 455.213C411.17 498.28 403.068 541.267 394.945 584.254C392.657 596.308 390.329 608.348 387.96 620.376C385.565 632.669 382.831 644.863 380.297 657.116C380.297 657.396 379.818 657.356 379.858 657.116C381.494 646.14 383.171 635.144 385.166 624.187Z" fill="#263238"/>
<path d="M406.361 353.772C408.356 353.253 410.612 353.074 412.707 352.754C414.403 352.475 416.1 352.175 417.776 351.816C420.989 351.235 424.035 349.954 426.697 348.064C429.363 345.607 431.355 342.509 432.484 339.064C433.323 337.068 434.181 335.072 435.059 333.216C435.478 332.279 435.897 331.341 436.336 330.403C436.932 329.31 437.466 328.184 437.933 327.03C437.933 326.85 438.252 327.03 438.172 327.03C437.853 327.808 437.713 328.666 437.474 329.465C437.234 330.263 436.915 331.46 436.615 332.298C436.096 333.995 435.578 335.671 435.039 337.348C434.198 340.427 432.992 343.395 431.447 346.188C428.353 351.138 422.805 353.113 417.257 353.812C415.681 354.011 414.064 354.131 412.468 354.231C410.475 354.398 408.473 354.398 406.481 354.231C406.121 354.291 406.022 353.852 406.361 353.772Z" fill="#263238"/>
<path d="M495.088 352.854C486.934 355.811 479.054 359.477 471.539 363.81C471.508 363.825 471.48 363.845 471.456 363.871C471.433 363.896 471.414 363.926 471.402 363.958C471.39 363.99 471.385 364.025 471.386 364.06C471.387 364.094 471.395 364.128 471.41 364.16C471.424 364.191 471.445 364.219 471.47 364.243C471.495 364.266 471.525 364.285 471.557 364.297C471.59 364.309 471.624 364.314 471.659 364.313C471.693 364.312 471.727 364.304 471.759 364.289C479.742 360.897 487.724 357.624 495.508 353.792C495.613 353.725 495.691 353.623 495.728 353.503C495.764 353.384 495.756 353.255 495.705 353.141C495.654 353.027 495.563 352.935 495.45 352.883C495.337 352.83 495.209 352.82 495.088 352.854Z" fill="#263238"/>
<path d="M497.464 298.531C497.464 298.252 496.965 298.192 496.965 298.531C496.963 307.376 496.517 316.215 495.628 325.014C495.268 329.105 491.976 351.677 484.891 350.04C483.713 349.761 483.115 348.603 482.895 346.807C482.931 344.47 483.246 342.145 483.833 339.882C484.631 335.152 485.25 330.423 485.669 325.633C486.498 316.746 486.397 307.797 485.37 298.931C485.355 298.881 485.325 298.838 485.283 298.807C485.242 298.776 485.192 298.76 485.14 298.76C485.089 298.76 485.039 298.776 484.997 298.807C484.956 298.838 484.926 298.881 484.911 298.931C485.132 311.261 484.412 323.59 482.755 335.811C481.877 341.678 478.924 350.519 485.051 351.437C491.177 352.355 495.368 337.467 496.127 333.476C498.087 321.935 498.537 310.188 497.464 298.531Z" fill="#263238"/>
<path d="M485.09 350.599C484.457 352.126 483.924 353.693 483.494 355.289C483.038 356.521 482.815 357.827 482.835 359.14C482.835 359.38 483.194 359.4 483.314 359.14C484.035 358.038 484.587 356.834 484.951 355.568C485.489 354.131 486.048 352.694 486.547 351.237C486.611 351.048 486.602 350.842 486.522 350.659C486.441 350.476 486.295 350.33 486.112 350.25C485.929 350.169 485.722 350.161 485.533 350.225C485.344 350.29 485.186 350.423 485.09 350.599Z" fill="#263238"/>
<path d="M404.026 325.094C404.305 325.393 522.53 321.661 523.567 320.424C525.004 318.648 499.619 201.242 479.662 176.376C474.633 170.169 457.71 168.393 451.064 175.378C431.806 195.335 428.333 209.664 423.723 222.975C420.311 232.814 416.439 249.537 413.046 266.64C407.379 294.819 403.008 324.016 404.026 325.094Z" fill="#455A64"/>
<path d="M487.126 297.134C486.774 295.882 486.605 294.584 486.627 293.283C486.596 291.981 486.764 290.682 487.126 289.431C487.791 291.956 487.791 294.61 487.126 297.134Z" fill="#252525"/>
<path d="M473.375 243.012C473.033 241.757 472.865 240.461 472.876 239.16C472.865 237.853 473.033 236.55 473.375 235.288C473.727 236.548 473.895 237.852 473.874 239.16C473.896 240.461 473.727 241.759 473.375 243.012Z" fill="#252525"/>
<path d="M436.276 221.598C435.924 220.345 435.756 219.047 435.777 217.746C435.756 216.438 435.924 215.134 436.276 213.874C436.628 215.134 436.796 216.438 436.775 217.746C436.786 219.047 436.618 220.343 436.276 221.598Z" fill="#252525"/>
<path d="M436.775 286.617C436.109 284.093 436.109 281.439 436.775 278.914C437.127 280.167 437.295 281.464 437.274 282.766C437.285 284.066 437.117 285.362 436.775 286.617Z" fill="#252525"/>
<path d="M458.508 276.16C461.032 275.494 463.687 275.494 466.211 276.16C463.687 276.825 461.032 276.825 458.508 276.16Z" fill="#252525"/>
<path d="M431.067 244.169C433.599 243.503 436.259 243.503 438.791 244.169C436.259 244.835 433.599 244.835 431.067 244.169Z" fill="#252525"/>
<path d="M469.523 207.887C470.776 207.535 472.074 207.367 473.375 207.389C474.677 207.356 475.976 207.525 477.227 207.887C474.702 208.553 472.048 208.553 469.523 207.887Z" fill="#252525"/>
<path d="M428.134 310.725C430.665 310.06 433.326 310.06 435.857 310.725C433.326 311.391 430.665 311.391 428.134 310.725Z" fill="#252525"/>
<path d="M481.198 316.952C482.46 316.609 483.763 316.442 485.07 316.453C486.371 316.442 487.667 316.61 488.922 316.952C487.669 317.304 486.371 317.472 485.07 317.451C483.762 317.472 482.458 317.304 481.198 316.952Z" fill="#252525"/>
<path d="M465.094 310.725C463.954 310.087 462.912 309.287 462.001 308.35C461.07 307.441 460.271 306.407 459.626 305.277C460.767 305.914 461.809 306.714 462.719 307.652C463.645 308.565 464.444 309.599 465.094 310.725Z" fill="#252525"/>
<path d="M424.9 267.758C422.637 266.445 420.753 264.568 419.432 262.31C420.572 262.948 421.614 263.748 422.525 264.685C423.456 265.594 424.255 266.628 424.9 267.758Z" fill="#252525"/>
<path d="M489.162 263.108C486.904 261.787 485.027 259.903 483.714 257.64C484.844 258.285 485.878 259.084 486.787 260.015C487.725 260.925 488.525 261.967 489.162 263.108Z" fill="#252525"/>
<path d="M458.508 224.392C456.245 223.079 454.361 221.202 453.04 218.944C454.181 219.58 455.223 220.381 456.133 221.318C457.059 222.232 457.858 223.266 458.508 224.392Z" fill="#252525"/>
<path d="M510.735 312.421C508.472 311.109 506.588 309.232 505.267 306.973C506.408 307.61 507.45 308.41 508.36 309.348C509.286 310.261 510.085 311.295 510.735 312.421Z" fill="#252525"/>
<path d="M512.092 271.749C511.442 272.882 510.644 273.922 509.717 274.843C508.802 275.775 507.761 276.574 506.624 277.218C507.936 274.947 509.822 273.062 512.092 271.749Z" fill="#252525"/>
<path d="M455.016 256.103C453.695 258.355 451.819 260.231 449.567 261.551C450.204 260.416 451.005 259.381 451.942 258.478C452.851 257.547 453.886 256.748 455.016 256.103Z" fill="#252525"/>
<path d="M414.962 293.582C413.641 295.834 411.766 297.71 409.514 299.03C410.834 296.778 412.71 294.903 414.962 293.582Z" fill="#252525"/>
<path d="M496.546 226.487C495.225 228.739 493.35 230.615 491.098 231.935C492.418 229.683 494.294 227.808 496.546 226.487Z" fill="#252525"/>
<path d="M452.281 194.676C451.638 195.813 450.839 196.854 449.906 197.769C448.993 198.695 447.959 199.494 446.833 200.144C447.471 199.004 448.271 197.962 449.208 197.051C450.117 196.12 451.151 195.321 452.281 194.676Z" fill="#252525"/>
<path d="M473.874 191.263C468.985 192.221 457.35 184.538 452.181 177.294C451.82 172.96 451.68 168.61 451.762 164.262C451.643 160.071 451.403 155.441 450.864 151.21C450.864 150.332 453.918 151.569 453.918 151.569L459.545 152.208L478.165 154.363C477.314 159.829 477.133 165.378 477.626 170.887C477.703 171.471 477.837 172.046 478.026 172.604C478.026 172.604 478.026 172.783 478.026 172.883C478.963 176.196 481.538 189.747 473.874 191.263Z" fill="#AD6359"/>
<path d="M478.025 172.684C478.025 172.684 478.025 172.863 478.025 172.963C477.135 173.196 476.228 173.356 475.311 173.442C457.35 175.258 452.381 152.866 452.381 152.866L459.466 152.288L478.085 154.443C477.234 159.909 477.053 165.458 477.546 170.967C477.649 171.554 477.809 172.129 478.025 172.684Z" fill="#263238"/>
<path d="M445.955 115.527C443.082 125.007 448.151 152.348 454.896 158.434C464.695 167.255 480.68 168.054 488.144 156.299C495.408 144.904 488.144 109.4 480.64 103.872C469.524 95.73 450.186 101.537 445.955 115.527Z" fill="#AD6359"/>
<path d="M470.123 130.275C470.123 130.275 470.003 130.395 470.123 130.475C470.601 132.291 470.821 134.466 469.324 135.424C469.324 135.424 469.324 135.544 469.324 135.524C471.2 134.786 470.861 131.912 470.123 130.275Z" fill="#263238"/>
<path d="M468.067 128.739C465.074 129.178 466.171 135.125 468.945 134.726C471.719 134.327 470.582 128.379 468.067 128.739Z" fill="#263238"/>
<path d="M480.959 127.88C480.959 127.88 481.119 127.88 481.119 128.02C481.398 129.876 482.037 132.012 483.813 132.251V132.351C481.737 132.451 480.959 129.697 480.959 127.88Z" fill="#263238"/>
<path d="M482.236 125.665C485.17 124.887 486.487 130.774 483.793 131.493C481.099 132.211 479.802 126.304 482.236 125.665Z" fill="#263238"/>
<path d="M465.213 126.464C465.992 126.104 466.65 125.645 467.369 125.226C468.087 124.807 468.905 124.428 469.364 123.53C469.461 123.266 469.467 122.976 469.38 122.709C469.293 122.441 469.119 122.21 468.885 122.053C468.374 121.809 467.808 121.705 467.244 121.751C466.68 121.796 466.137 121.99 465.672 122.312C464.638 122.827 463.834 123.71 463.417 124.787C463.338 125.032 463.33 125.295 463.395 125.545C463.46 125.794 463.594 126.02 463.783 126.196C463.971 126.372 464.206 126.49 464.459 126.538C464.712 126.585 464.974 126.559 465.213 126.464Z" fill="#263238"/>
<path d="M483.873 122.951C483.034 122.951 482.236 122.851 481.398 122.791C480.53 122.823 479.675 122.571 478.963 122.073C478.761 121.873 478.63 121.613 478.591 121.332C478.551 121.051 478.605 120.764 478.744 120.516C479.095 120.075 479.557 119.735 480.083 119.531C480.61 119.328 481.18 119.268 481.737 119.359C482.895 119.356 484.01 119.799 484.851 120.596C485.055 120.785 485.198 121.031 485.257 121.303C485.317 121.575 485.292 121.859 485.186 122.116C485.079 122.373 484.896 122.591 484.661 122.74C484.426 122.89 484.151 122.963 483.873 122.951Z" fill="#263238"/>
<path d="M471.6 147.678C472.119 148.037 472.658 148.556 473.336 148.476C474.018 148.337 474.664 148.059 475.232 147.658C475.232 147.658 475.352 147.658 475.332 147.658C475.134 148.067 474.829 148.414 474.45 148.664C474.07 148.913 473.63 149.055 473.177 149.075C472.786 149.044 472.413 148.899 472.104 148.657C471.796 148.416 471.565 148.089 471.44 147.718C471.44 147.718 471.52 147.638 471.6 147.678Z" fill="#263238"/>
<path d="M472.498 141.81C473.104 142.449 473.835 142.955 474.645 143.299C475.455 143.642 476.328 143.815 477.208 143.806C477.978 143.819 478.746 143.711 479.483 143.487C479.628 143.468 479.769 143.428 479.902 143.367L480.301 143.227C480.396 143.192 480.475 143.125 480.526 143.037C480.577 142.95 480.596 142.848 480.58 142.748C480.59 142.689 480.59 142.628 480.58 142.569V142.409C480.361 140.992 479.822 138.857 479.822 138.857C480.381 139.016 483.255 139.715 483.075 138.996C481.704 132.632 479.698 126.421 477.088 120.456C477.072 120.412 477.039 120.375 476.996 120.354C476.953 120.334 476.904 120.331 476.859 120.347C476.814 120.363 476.777 120.396 476.756 120.439C476.736 120.482 476.733 120.531 476.749 120.576C477.966 126.464 480.201 132.091 481.518 137.979C480.496 137.716 479.44 137.602 478.385 137.639C478.206 137.639 479.503 141.73 479.543 142.389C478.405 142.72 477.213 142.819 476.037 142.678C474.86 142.537 473.725 142.161 472.698 141.571C472.498 141.531 472.378 141.691 472.498 141.81Z" fill="#263238"/>
<path d="M478.504 142.948C477.921 144.103 477.047 145.086 475.969 145.802C475.376 146.183 474.677 146.364 473.974 146.321C472.437 146.201 472.138 144.864 472.197 143.646C472.233 143.009 472.347 142.379 472.537 141.77C474.351 142.783 476.44 143.195 478.504 142.948Z" fill="#263238"/>
<path d="M449.508 136.222C455.814 135.205 455.255 123.57 455.255 123.57C455.255 123.57 465.813 120.117 466.112 111.715C466.112 111.715 477.427 116.685 485.051 112.494C492.674 108.303 489.561 99.442 488.364 97.6259C487.166 95.8098 483.235 100.12 483.235 100.12C483.235 100.12 481.938 95.0315 480.461 94.7321C478.984 94.4328 477.986 97.7656 477.986 97.7656C471.246 96.6972 464.384 96.6501 457.63 97.6259C448.211 99.3621 445.018 109.6 445.018 109.6C445.018 109.6 440.128 111.456 439.031 115.248C437.933 119.04 445.497 136.861 449.508 136.222Z" fill="#263238"/>
<path d="M452.72 124.069C461.261 123.889 465.971 117.443 465.931 109.241H466.091C467.009 116.764 461.321 126.164 452.7 124.468C452.647 124.465 452.597 124.442 452.561 124.402C452.526 124.363 452.507 124.311 452.51 124.258C452.513 124.205 452.536 124.156 452.576 124.12C452.615 124.085 452.667 124.066 452.72 124.069Z" fill="#263238"/>
<path d="M445.217 109.44C445.217 109.44 445.376 109.54 445.217 109.6C443.041 111.037 440.487 112.274 439.23 114.669C437.633 117.563 438.591 120.876 439.788 123.69C441.644 128.06 444.917 133.668 449.388 135.664C449.647 135.783 449.388 136.163 449.188 136.063C443.88 133.947 439.848 126.723 438.351 121.474C436.675 115.567 439.888 111.576 445.217 109.44Z" fill="#263238"/>
<path d="M475.652 112.633C477.775 113.469 480.086 113.706 482.335 113.319C484.583 112.932 486.683 111.935 488.404 110.438C492.395 106.666 490.619 101.737 488.045 97.8055C487.925 97.6059 488.185 97.3465 488.364 97.5261C491.537 100.839 492.635 106.467 489.522 110.219C486.408 113.971 479.843 115.008 475.392 113.192C474.973 113.033 475.292 112.474 475.652 112.633Z" fill="#263238"/>
<path d="M451.842 137.819C451.842 137.819 445.476 129.118 441.505 131.413C437.533 133.708 442.483 146.42 447.232 148.057C447.827 148.311 448.467 148.443 449.114 148.443C449.76 148.444 450.4 148.313 450.995 148.059C451.59 147.806 452.127 147.434 452.575 146.967C453.022 146.501 453.371 145.948 453.599 145.343L451.842 137.819Z" fill="#AD6359"/>
<path d="M443.041 135.005C443.041 135.005 442.942 135.125 443.041 135.145C444.573 135.866 445.937 136.899 447.047 138.177C448.157 139.455 448.988 140.951 449.487 142.569C449.288 142.239 449.019 141.957 448.7 141.743C448.38 141.528 448.017 141.387 447.636 141.328C447.256 141.269 446.867 141.294 446.497 141.401C446.127 141.509 445.786 141.696 445.496 141.95C445.396 141.95 445.496 142.13 445.496 142.11C446.074 141.911 446.699 141.897 447.285 142.069C447.871 142.24 448.389 142.589 448.769 143.068C449.391 143.878 449.932 144.747 450.386 145.662C450.545 145.941 451.064 145.782 450.944 145.442C451.024 141.152 447.552 135.344 443.041 135.005Z" fill="#263238"/>
<path d="M478.465 174.32L473.676 190.884L451.863 172.723L446.894 179.748C446.894 179.748 469.485 209.823 469.445 208.366L474.634 193.978L485.071 202.579L481.898 178.631L478.465 174.32Z" fill="#EBEBEB"/>
<path d="M484.173 190.665C483.514 186.673 482.955 182.682 482.177 178.87C482.177 178.731 481.918 178.691 481.918 178.87C481.498 182.762 484.093 197.769 484.432 201.401C483.993 201.022 474.813 193.878 474.733 194.017C473.536 196.332 469.724 206.81 469.484 207.748C465.912 202.978 450.905 184.239 446.793 179.808C446.674 179.688 446.474 179.808 446.574 179.968C449.807 185.077 469.265 209.903 469.484 209.743C471.557 204.774 473.362 199.698 474.893 194.536C476.489 196.153 485.869 204.315 485.829 203.716C485.509 199.34 484.956 194.983 484.173 190.665Z" fill="#263238"/>
<path d="M432.026 191.144C422.387 181.165 400.474 144.105 400.953 122.293C401.312 105.269 409.993 58.2909 415.302 46.2969C417.697 40.8486 453.879 64.3778 454.158 70.744C454.437 77.1102 440.188 116.864 438.512 126.783C437.714 131.473 440.727 155.581 447.832 177.533C454.238 197.31 443.8 203.257 432.026 191.144Z" fill="#AD6359"/>
<path d="M412.646 56.2154C413.704 51.0067 420.629 27.6173 424.102 21.5504C427.574 15.4835 438.55 -1.30022 443.46 0.815205C448.369 2.93063 445.456 8.11942 445.456 8.11942C445.456 8.11942 451.243 1.77313 455.993 4.36752C460.742 6.96191 455.993 14.8648 455.993 14.8648C455.993 14.8648 462.419 8.87777 466.969 11.7116C471.519 14.5455 465.472 21.6901 465.472 21.6901C465.472 21.6901 471.1 15.8627 473.834 19.854C477.127 24.6636 465.572 34.2429 462.319 41.2278C461.581 42.8244 449.646 74.4759 449.646 74.4759L412.646 56.2154Z" fill="#AD6359"/>
<path d="M466.151 21.0714C457.669 28.1361 455.175 32.7062 451.822 43.0239C451.822 43.2235 451.443 43.1836 451.503 43.0239C453.857 32.5865 456.152 26.4198 465.832 20.6922C466.291 20.2931 466.55 20.7321 466.151 21.0714Z" fill="#263238"/>
<path d="M456.831 14.306C448.668 22.4085 445.914 27.3379 441.624 37.915C441.624 38.0547 441.304 37.915 441.344 37.8152C444.697 27.0984 447.132 20.9916 456.352 13.867C456.771 13.5477 457.21 13.847 456.831 14.306Z" fill="#263238"/>
<path d="M445.336 8.55847C437.992 17.0002 434.759 22.2688 431.905 33.0655C431.905 33.3249 431.446 33.2451 431.506 33.0655C432.577 23.3551 437.44 14.4607 445.037 8.31899C445.576 7.91985 445.795 8.0396 445.336 8.55847Z" fill="#263238"/>
<path d="M451.623 82.279C451.623 82.279 462.1 72.6798 465.233 67.3114C468.367 61.943 472.617 37.5757 467.409 36.3583C460.683 34.7818 455.435 48.3324 453.758 55.3373C453.758 55.3373 438.212 51.6852 432.345 60.6059C426.477 69.5266 451.623 82.279 451.623 82.279Z" fill="#AD6359"/>
<path d="M465.413 36.518C458.249 39.5115 456.612 48.8114 454.477 55.477C454.449 55.577 454.397 55.6686 454.326 55.744C454.254 55.8194 454.166 55.8763 454.067 55.9097C453.969 55.9431 453.864 55.9521 453.762 55.9358C453.659 55.9195 453.562 55.8785 453.479 55.8163C446.873 54.7186 437.214 55.0978 432.265 60.1868C432.233 60.206 432.195 60.2147 432.158 60.2116C432.121 60.2086 432.085 60.1939 432.057 60.1697C432.028 60.1456 432.008 60.113 431.999 60.0767C431.989 60.0404 431.992 60.0022 432.005 59.9673C436.576 53.8206 445.975 52.6631 453.2 54.3395C455.195 47.4743 457.351 38.2143 465.393 36.3783C465.433 36.4382 465.453 36.498 465.413 36.518Z" fill="#263238"/>
<path d="M406.421 63.0806L452.581 87.0288C452.581 87.0288 440.607 120.377 439.609 126.583C438.611 132.79 449.847 176.755 451.404 186.075C452.96 195.394 429.451 227.984 427.595 211.599C425.739 195.215 400.893 146.081 399.655 129.377C398.418 112.673 406.421 63.0806 406.421 63.0806Z" fill="#455A64"/>
<path d="M435.058 145.622C434.708 144.369 434.539 143.072 434.559 141.77C434.528 140.462 434.697 139.157 435.058 137.899C435.4 139.161 435.568 140.463 435.557 141.77C435.557 143.07 435.389 144.365 435.058 145.622Z" fill="#252525"/>
<path d="M422.166 92.1377C421.501 89.6131 421.501 86.959 422.166 84.4344C422.832 86.959 422.832 89.6131 422.166 92.1377Z" fill="#252525"/>
<path d="M439.488 163.643C442.013 162.977 444.667 162.977 447.192 163.643C444.667 164.309 442.013 164.309 439.488 163.643Z" fill="#252525"/>
<path d="M428.033 113.651C429.295 113.309 430.598 113.141 431.905 113.152C433.206 113.131 434.504 113.299 435.757 113.651C434.504 114.003 433.206 114.171 431.905 114.15C430.597 114.171 429.293 114.003 428.033 113.651Z" fill="#252525"/>
<path d="M436.196 185.596C433.933 184.283 432.048 182.406 430.728 180.147C431.868 180.786 432.91 181.586 433.821 182.522C434.752 183.431 435.551 184.466 436.196 185.596Z" fill="#252525"/>
<path d="M419.552 135.624C417.289 134.311 415.405 132.434 414.084 130.175C415.225 130.812 416.267 131.612 417.177 132.55C418.103 133.464 418.902 134.497 419.552 135.624Z" fill="#252525"/>
<path d="M452.281 194.676C451.638 195.813 450.839 196.854 449.906 197.769C448.993 198.695 447.959 199.494 446.833 200.144C447.471 199.004 448.271 197.962 449.208 197.051C450.117 196.12 451.151 195.321 452.281 194.676Z" fill="#252525"/>
<path d="M422.267 158.714C421.629 159.849 420.829 160.884 419.892 161.787C418.983 162.718 417.948 163.517 416.818 164.162C418.139 161.91 420.015 160.034 422.267 158.714Z" fill="#252525"/>
<path d="M449.168 91.2596C447.848 93.5116 445.972 95.3875 443.72 96.7079C445.04 94.4559 446.916 92.58 449.168 91.2596Z" fill="#252525"/>
<path d="M447.351 93.6944C434.518 86.7638 421.329 80.5152 407.837 74.9749C407.677 74.9749 407.577 75.1545 407.737 75.2143C411.03 76.5714 432.124 87.5876 447.252 93.9738C447.431 94.1334 447.511 93.7942 447.351 93.6944Z" fill="#263238"/>
<path d="M686.236 307.891C686.236 307.891 666.658 501.473 666.179 503.987C666.179 504.306 665.98 507.979 665.8 514.105C664.743 547.433 662.128 651.368 662.128 651.368H582.301C582.301 651.368 587.51 528.275 590.503 499.557C594.315 462.916 618.443 307.971 618.443 307.971L686.236 307.891Z" fill="#455A64"/>
<path d="M656.58 510.812C659.055 468.837 662.76 426.98 667.696 385.244C670.49 361.715 673.883 338.266 677.235 314.816C677.235 314.617 677.575 314.617 677.555 314.816C671.368 356.566 666.997 398.635 663.226 440.544C659.454 482.454 656.819 524.583 655.103 566.672C654.125 590.62 653.387 614.389 652.628 638.257C652.607 638.36 652.55 638.452 652.468 638.518C652.387 638.585 652.285 638.621 652.18 638.621C652.074 638.621 651.972 638.585 651.891 638.518C651.809 638.452 651.752 638.36 651.73 638.257C652.948 595.809 654.165 553.281 656.58 510.812Z" fill="#263238"/>
<path d="M686.236 307.891C686.236 307.891 666.658 501.473 666.179 503.987C666.179 504.306 665.98 507.979 665.8 514.105L628.142 307.891H686.236Z" fill="#263238"/>
<path d="M617.346 306.814C617.346 306.814 623.572 335.871 643.09 350.08C643.09 350.08 693.301 481.895 703.859 495.765C721.341 518.755 805.918 577.927 805.918 577.927L855.81 514.325C855.81 514.325 773.987 461.659 767.441 453.377C763.071 447.888 728.226 363.251 728.645 360.238C733.435 324.455 716.372 302.223 716.372 302.223L617.346 306.814Z" fill="#455A64"/>
<path d="M630.637 341.219C635.357 343.125 639.865 345.52 644.087 348.364C648.558 351.138 652.689 354.351 657 357.364C657.179 357.484 657 357.743 656.86 357.644C652.33 355.029 647.62 352.774 643.13 350.08C638.652 347.634 634.404 344.788 630.437 341.578C630.257 341.459 630.397 341.159 630.637 341.219Z" fill="#263238"/>
<path d="M628.76 314.078C629.459 317.051 630.317 320.065 631.115 322.959C631.913 325.852 632.432 328.586 633.29 331.321C634.033 333.98 635.514 336.374 637.561 338.226C638.699 339.204 639.956 340.042 641.173 340.94L643.169 342.337C643.069 341.958 642.989 341.538 642.89 341.139C642.63 340.002 642.391 338.884 642.151 337.747C641.612 335.232 641.093 332.718 640.575 330.183C639.597 325.234 638.579 320.205 637.401 315.315C637.392 315.291 637.389 315.265 637.393 315.24C637.396 315.214 637.405 315.19 637.42 315.168C637.435 315.147 637.454 315.13 637.477 315.118C637.5 315.106 637.525 315.1 637.551 315.1C637.577 315.1 637.602 315.106 637.625 315.118C637.648 315.13 637.667 315.147 637.682 315.168C637.697 315.19 637.706 315.214 637.709 315.24C637.713 315.265 637.71 315.291 637.701 315.315C639.158 320.145 640.754 324.934 642.071 329.824C642.71 332.219 645.145 344.093 645.284 344.931C645.424 345.769 645.524 346.687 645.584 347.565C645.743 348.447 645.784 349.347 645.703 350.24C645.686 350.278 645.658 350.31 645.622 350.333C645.587 350.356 645.546 350.368 645.504 350.368C645.462 350.368 645.421 350.356 645.385 350.333C645.35 350.31 645.322 350.278 645.304 350.24C644.908 349.427 644.613 348.569 644.426 347.685C644.167 346.847 643.947 345.989 643.748 345.111L643.568 344.173C642.351 343.514 641.213 342.616 640.076 341.858C638.938 341.099 637.601 340.281 636.443 339.383C634.287 337.728 632.681 335.46 631.833 332.877C630.977 330.09 630.376 327.231 630.037 324.336C629.498 320.963 629.059 317.55 628.441 314.198C628.421 313.978 628.64 313.878 628.76 314.078Z" fill="#263238"/>
<path d="M636.024 119.179C639.341 120.343 642.3 122.346 644.612 124.994C646.924 127.641 648.51 130.843 649.216 134.287C650.063 138.859 651.471 143.31 653.407 147.538C655.766 151.6 658.704 155.297 662.128 158.514C667.466 163.467 671.187 169.914 672.805 177.014C674.728 185.246 675.026 193.774 673.683 202.12C674.555 193.401 673.756 184.595 671.328 176.176C668.893 167.694 663.644 162.865 658.156 156.938C653.73 152.24 650.607 146.469 649.096 140.194C648.138 136.202 647.679 132.211 645.743 128.659C643.344 124.88 639.869 121.905 635.765 120.117C635.166 119.778 635.525 118.98 636.024 119.179Z" fill="#263238"/>
<path d="M576.314 174.12C580.006 167.275 583.978 161.328 585.634 153.266C587.151 145.901 587.63 138.278 589.146 130.934C589.146 130.814 589.346 130.834 589.326 130.934C587.131 143.926 587.949 156.598 581.722 168.133C578.35 174.38 574.917 180.227 573.081 187.432C571.218 194.993 570.724 202.827 571.624 210.562C571.624 210.841 571.305 210.881 571.265 210.562C568.621 198.198 570.408 185.299 576.314 174.12Z" fill="#263238"/>
<path d="M626.764 210.123C606.209 213.755 536.839 191.822 523.847 177.573C504.509 156.399 489.821 118.581 485.65 104.351C483.833 98.1448 524.705 79.4652 527.559 85.7316C533.785 99.1626 551.507 140.813 554.96 144.724C558.412 148.636 592.878 172.524 612.835 183.101C639.756 197.33 637.162 208.287 626.764 210.123Z" fill="#DD6A57"/>
<path d="M530.593 94.4128C530.274 91.3395 520.775 68.3292 515.506 60.9651C510.11 53.029 503.449 46.0311 495.789 40.2499C483.655 31.1895 474.395 26.0407 472 27.8567C467.57 31.2095 470.204 36.6577 482.358 45.9776C494.511 55.2974 492.875 64.3379 491.238 70.6442C487.191 86.1057 487.102 102.337 490.979 117.842C490.979 117.842 531.871 106.287 530.593 94.4128Z" fill="#DD6A57"/>
<path d="M491.896 68.3692C490.419 74.935 482.257 50.408 474.893 48.4123C467.529 46.4166 468.128 54.1 470.902 60.8454C480.7 84.1949 476.39 99.0029 487.905 112.414C499.42 125.825 491.896 68.3692 491.896 68.3692Z" fill="#DD6A57"/>
<path d="M488.743 121.913C489.621 121.175 535.303 94.7122 535.303 94.7122C535.303 94.7122 552.266 137.959 555.738 143.127C559.211 148.296 609.143 180.167 626.406 190.246C644.866 201.042 639.357 216.948 606.848 210.522C574.338 204.096 537.218 191.583 524.885 180.846C512.891 170.448 488.743 121.913 488.743 121.913Z" fill="#57EBDE"/>
<path d="M495.588 126.962C514.367 118.181 532.787 106.088 536.14 104.212C536.3 104.112 536.14 103.872 535.98 103.972C532.787 105.968 510.256 117.523 495.408 126.703C495.381 126.729 495.363 126.764 495.359 126.802C495.355 126.84 495.365 126.878 495.387 126.91C495.409 126.941 495.441 126.964 495.478 126.973C495.514 126.983 495.553 126.979 495.588 126.962Z" fill="#263238"/>
<path d="M606.03 272.009L609.422 328.367C609.422 328.367 698.849 311.204 720.662 305.057C720.662 305.057 681.406 206.51 652.25 185.596C637.661 175.138 623.891 179.01 616.866 189.886C615.07 192.64 595.552 233.791 595.532 247.921C595.552 260.414 606.03 272.009 606.03 272.009Z" fill="#57EBDE"/>
<path d="M637.341 186.633C636.902 188.41 628.221 199.925 620.039 199.446C617.365 199.286 617.604 184.718 617.604 184.718L617.384 183.62L614.191 168.513L632.053 157.377L634.627 156C634.627 156 635.226 160.191 635.924 165.419C635.924 165.659 635.924 165.898 636.024 166.158L636.144 167.016C636.264 167.794 636.363 168.592 636.463 169.391C636.563 170.189 636.623 170.588 636.663 171.227C636.703 171.865 636.802 172.484 636.882 173.123C637.335 177.611 637.488 182.125 637.341 186.633Z" fill="#DD6A57"/>
<path d="M635.924 165.319C634.347 169.533 631.872 173.352 628.671 176.512C625.469 179.672 621.618 182.098 617.384 183.62L614.191 168.513L632.053 157.377L634.627 156C634.627 156 635.226 160.091 635.924 165.319Z" fill="#263238"/>
<path d="M592.119 148.276C593.137 175.378 609.482 177.832 615.329 177.613C620.618 177.393 638.659 176.036 640.455 148.975C642.251 121.913 629.339 113.831 617.165 113.651C604.991 113.472 591.121 121.195 592.119 148.276Z" fill="#DD6A57"/>
<path d="M595.852 140.653C596.465 140.53 597.071 140.377 597.668 140.194C598.328 140.122 598.945 139.834 599.424 139.376C599.559 139.209 599.632 139.001 599.632 138.787C599.632 138.573 599.559 138.365 599.424 138.198C599.106 137.916 598.718 137.723 598.301 137.639C597.884 137.555 597.452 137.583 597.049 137.719C596.189 137.879 595.42 138.356 594.894 139.056C594.789 139.219 594.732 139.408 594.729 139.602C594.726 139.796 594.777 139.986 594.876 140.153C594.976 140.319 595.12 140.454 595.293 140.542C595.465 140.63 595.659 140.669 595.852 140.653Z" fill="#263238"/>
<path d="M613.652 140.034C613.028 139.967 612.408 139.86 611.796 139.715C611.132 139.696 610.494 139.458 609.98 139.036C609.855 138.865 609.788 138.659 609.788 138.448C609.788 138.236 609.855 138.03 609.98 137.859C610.276 137.553 610.649 137.332 611.06 137.22C611.471 137.107 611.905 137.108 612.315 137.22C613.188 137.302 613.995 137.717 614.57 138.378C614.7 138.535 614.78 138.729 614.798 138.932C614.817 139.135 614.774 139.34 614.675 139.518C614.576 139.697 614.426 139.842 614.243 139.934C614.061 140.026 613.855 140.061 613.652 140.034Z" fill="#263238"/>
<path d="M610.28 147.059C610.28 147.059 610.44 147.059 610.44 147.219C610.44 149.075 610.679 151.21 612.436 151.789V151.889C610.3 151.629 609.961 148.815 610.28 147.059Z" fill="#263238"/>
<path d="M611.916 145.123C614.87 144.844 615.189 150.811 612.435 151.11C609.681 151.41 609.421 145.343 611.916 145.123Z" fill="#263238"/>
<path d="M613.095 145.363C613.634 145.682 614.172 146.241 614.811 146.281C615.45 146.321 616.048 145.662 616.487 145.043C616.487 145.043 616.487 145.043 616.607 145.043C616.607 146.181 616.288 147.378 615.09 147.598C613.893 147.817 613.095 146.839 612.775 145.722C612.676 145.562 612.875 145.243 613.095 145.363Z" fill="#263238"/>
<path d="M599.663 147.259C599.663 147.259 599.523 147.259 599.543 147.438C599.703 149.274 599.543 151.43 597.967 152.128C597.967 152.128 597.967 152.248 597.967 152.228C600.002 151.829 600.122 148.975 599.663 147.259Z" fill="#263238"/>
<path d="M597.907 145.443C594.933 145.443 595.053 151.43 597.807 151.43C600.561 151.43 600.401 145.482 597.907 145.443Z" fill="#263238"/>
<path d="M596.71 145.862C596.251 146.181 595.792 146.78 595.233 146.819C594.674 146.859 594.095 146.241 593.656 145.622C593.656 146.76 594.035 147.937 595.133 148.137C596.231 148.336 596.849 147.318 597.129 146.141C597.029 146.021 596.869 145.722 596.71 145.862Z" fill="#263238"/>
<path d="M603.235 155.381C603.096 156.707 603.023 158.039 603.016 159.372C603.016 159.492 603.335 159.532 603.774 159.552C604.911 159.725 606.073 159.577 607.131 159.126C608.188 158.675 609.099 157.938 609.761 156.998C609.774 156.97 609.778 156.939 609.773 156.91C609.767 156.88 609.751 156.853 609.729 156.833C609.706 156.812 609.678 156.8 609.648 156.797C609.618 156.795 609.587 156.802 609.562 156.818C607.949 158.025 605.988 158.677 603.974 158.674C603.874 158.315 604.592 153.944 604.393 153.924C603.391 154.062 602.411 154.331 601.479 154.722C601.858 148.935 603.175 143.247 603.475 137.48C603.475 137.432 603.456 137.386 603.422 137.353C603.388 137.319 603.343 137.3 603.295 137.3C603.247 137.3 603.202 137.319 603.168 137.353C603.134 137.386 603.116 137.432 603.116 137.48C601.521 143.52 600.532 149.704 600.162 155.94C600.082 156.698 602.696 155.62 603.235 155.381Z" fill="#263238"/>
<path d="M603.774 158.754C604.492 159.825 605.475 160.691 606.628 161.268C607.249 161.565 607.946 161.663 608.624 161.548C610.141 161.248 610.26 159.891 610.081 158.714C609.969 158.082 609.781 157.465 609.522 156.878C607.851 158.092 605.84 158.748 603.774 158.754Z" fill="#263238"/>
<path d="M606.688 161.268C607.309 161.565 608.006 161.663 608.684 161.548C610.201 161.248 610.321 159.891 610.141 158.714C609.363 158.694 608.601 158.935 607.976 159.398C607.35 159.86 606.897 160.519 606.688 161.268Z" fill="#FF9BBC"/>
<path d="M639.358 148.157C632.792 148.516 632.373 138.178 632.373 138.178C632.373 138.178 624.889 137.859 623.791 125.865C622.459 128.345 620.569 130.482 618.269 132.107C615.969 133.731 613.323 134.798 610.54 135.225C608.405 135.644 615.31 129.776 615.31 129.776C615.31 129.776 607.107 137.939 591.042 135.763C589.905 135.604 590.224 117.144 602.457 110.837C614.691 104.531 627.384 108.842 635.466 116.345C635.466 116.345 644.806 120.157 646.243 128.759C647.68 137.36 641.892 148.017 639.358 148.157Z" fill="#263238"/>
<path d="M636.225 151.23C636.225 151.23 641.054 142.09 645.125 143.706C649.197 145.323 646.303 158.055 642.032 160.27C641.506 160.596 640.918 160.812 640.306 160.904C639.693 160.996 639.069 160.963 638.47 160.806C637.87 160.649 637.309 160.372 636.821 159.992C636.332 159.612 635.925 159.136 635.626 158.594L636.225 151.23Z" fill="#DD6A57"/>
<path d="M644.207 147.338C644.207 147.338 644.307 147.338 644.207 147.458C642.849 148.356 641.697 149.532 640.826 150.908C639.956 152.284 639.387 153.829 639.158 155.441C639.301 155.104 639.516 154.803 639.787 154.557C640.058 154.311 640.379 154.127 640.728 154.017C641.077 153.907 641.445 153.874 641.808 153.92C642.171 153.966 642.52 154.09 642.83 154.283V154.463C642.258 154.356 641.666 154.429 641.137 154.672C640.608 154.915 640.168 155.316 639.876 155.82C639.398 156.669 639.01 157.565 638.719 158.494C638.599 158.794 638.08 158.694 638.14 158.375C637.542 154.263 639.956 148.276 644.207 147.338Z" fill="#263238"/>
<path d="M659.354 196.133C693.78 232.394 722.058 307.891 705.494 314.896C690.367 321.362 642.411 315.375 622.693 310.685C616.906 309.288 628.68 264.425 634.767 265.902C642.251 267.678 661.39 270.432 662.168 270.372C663.824 270.253 646.202 220.061 640.535 200.803C632.632 173.961 646.442 182.522 659.354 196.133Z" fill="#DD6A57"/>
<path d="M575.096 255.584C574.382 256.821 574.058 258.244 574.164 259.668C574.271 261.092 574.805 262.451 575.695 263.567C573.477 264.616 571.697 266.41 570.666 268.636C569.01 272.627 574.657 276.978 574.657 276.978C572.578 278.551 571.021 280.714 570.187 283.185C569.01 287.176 574.019 292.345 574.019 292.345C572.897 294.859 572.72 297.693 573.52 300.328C575.915 307.213 586.811 309.687 593.716 311.344C600.621 313 621.656 311.184 625.787 311.244L636.623 267.099C636.623 267.099 607.786 250.934 599.384 250.156C592.339 249.497 578.11 250.934 575.096 255.584Z" fill="#DD6A57"/>
<path d="M576.174 263.028C583.858 261.931 591.441 263.148 599.085 263.946C599.111 263.957 599.133 263.975 599.149 263.998C599.164 264.021 599.173 264.048 599.173 264.076C599.173 264.104 599.164 264.131 599.149 264.154C599.133 264.177 599.111 264.195 599.085 264.206C591.481 263.328 583.818 263.966 576.214 263.387C576.167 263.393 576.119 263.379 576.081 263.349C576.044 263.319 576.02 263.275 576.015 263.228C576.009 263.18 576.023 263.132 576.053 263.095C576.083 263.058 576.127 263.034 576.174 263.028Z" fill="#263238"/>
<path d="M574.878 276.539C576.645 276.456 578.417 276.604 580.146 276.978C582.002 277.277 583.858 277.597 585.694 277.936C589.386 278.634 593.058 279.413 596.69 280.311C596.87 280.311 596.85 280.59 596.69 280.57C593.018 279.865 589.326 279.247 585.614 278.714L580.066 277.956C578.296 277.848 576.543 277.547 574.838 277.058C574.787 277.033 574.745 276.994 574.717 276.946C574.689 276.897 574.676 276.841 574.681 276.785C574.685 276.729 574.706 276.675 574.741 276.631C574.776 276.588 574.824 276.555 574.878 276.539Z" fill="#263238"/>
<path d="M574.098 292.485C575.701 292.426 577.302 292.649 578.828 293.143L583.857 294.161C587.21 294.819 590.563 295.498 593.935 296.037C594.115 296.037 594.075 296.336 593.935 296.316C590.503 295.757 587.05 295.279 583.638 294.7L578.589 293.842C577.027 293.71 575.5 293.305 574.078 292.644C574.078 292.644 574.039 292.485 574.098 292.485Z" fill="#263238"/>
<path d="M660.392 268.935C662.767 266.94 643.967 219.662 638.839 198.149C633.71 176.635 643.648 177.832 659.394 195.155C676.278 213.715 704.337 254.766 710.723 297.055C712.719 310.266 715.413 319.686 684.779 319.147C667.012 318.96 649.285 317.412 631.754 314.517L638.419 266.221C638.419 266.221 659.713 269.514 660.392 268.935Z" fill="#57EBDE"/>
<path d="M642.61 314.138C646.601 295.019 647.719 274.344 648.198 270.752C648.198 270.592 647.938 270.572 647.918 270.752C647.639 274.284 643.708 297.773 642.311 314.118C642.311 314.297 642.61 314.317 642.61 314.138Z" fill="#263238"/>
<path d="M683.622 272.687C681.731 272.153 679.804 271.76 677.855 271.51L672.486 270.532L670.151 270.113H670.371L673.484 269.674C674.522 269.514 675.48 269.295 676.617 269.195C676.777 269.195 676.777 268.916 676.617 268.935C675.58 269.075 674.622 269.075 673.504 269.135L670.251 269.355L667.417 269.654C665.681 269.375 663.945 269.095 662.209 268.856C661.45 265.423 660.213 262.03 659.195 258.678C658.177 255.325 656.96 251.693 655.763 248.22C654.565 244.748 653.348 241.435 652.031 238.082C651.372 236.406 647.86 226.108 646.702 223.394C646.702 223.214 646.423 223.394 646.463 223.494C647.141 226.208 650.733 236.805 651.252 238.521C651.631 239.779 652.031 241.036 652.43 242.273L652.27 242.094L650.175 239.3C648.778 237.404 647.381 235.488 646.183 233.472C646.183 233.293 645.824 233.472 645.924 233.632C647.081 235.747 648.179 237.863 649.396 239.918C650.015 240.956 650.654 241.914 651.392 242.952C652.001 243.963 652.724 244.9 653.547 245.746C653.867 246.763 654.166 247.741 654.505 248.819C655.583 252.252 656.681 255.684 657.738 259.117C658.796 262.549 659.574 265.503 660.692 268.596C657.12 268.117 653.567 267.698 649.995 267.259L644.527 266.62C642.531 266.401 640.535 266.401 638.54 266.062C638.36 266.062 638.3 266.301 638.54 266.321C640.535 266.541 642.411 267.139 644.327 267.479L649.716 268.417C653.507 269.055 657.319 269.734 661.131 270.412C664.943 271.091 668.675 271.41 672.447 271.849L678.134 272.488C679.964 272.77 681.811 272.924 683.662 272.947L683.622 272.687Z" fill="#263238"/>
<path d="M692.044 319.187C675.579 318.608 645.943 316.353 632.173 314.517C632.152 314.508 632.129 314.505 632.106 314.508C632.083 314.51 632.062 314.518 632.043 314.531C632.024 314.544 632.008 314.561 631.998 314.581C631.987 314.601 631.981 314.624 631.981 314.647C631.981 314.669 631.987 314.692 631.998 314.712C632.008 314.732 632.024 314.749 632.043 314.762C632.062 314.775 632.083 314.783 632.106 314.785C632.129 314.788 632.152 314.785 632.173 314.776C651.834 319 671.953 320.697 692.044 319.825C692.128 319.825 692.209 319.792 692.269 319.732C692.329 319.672 692.363 319.591 692.363 319.506C692.363 319.421 692.329 319.34 692.269 319.28C692.209 319.22 692.128 319.187 692.044 319.187Z" fill="#263238"/>
<path d="M296.559 129.756C319.19 151.709 323.8 208.207 295.901 246.205C272.272 278.375 217.41 284.502 193.821 265.323C168.816 244.947 172.488 211.939 190.768 195.873C209.627 179.309 232.258 183.76 243.694 168.992C249.162 161.927 251.197 147.039 258.821 136.163C267.422 124.069 284.984 118.481 296.559 129.756Z" fill="#263238"/>
<path d="M275.764 125.585C278.278 124.647 280.653 110.638 271.453 103.972C262.253 97.3065 250.459 104.93 255.488 116.405C258.541 123.65 270.475 127.561 275.764 125.585Z" fill="#263238"/>
<path d="M253.453 146.241C251.801 151.361 249.725 156.334 247.246 161.109C244.764 165.99 241.259 170.279 236.968 173.681C234.694 175.261 232.171 176.448 229.504 177.194C226.91 178.032 224.316 178.73 221.741 179.449C216.587 180.799 211.504 182.411 206.514 184.278C201.567 186.095 196.872 188.536 192.544 191.543C188.221 194.58 184.572 198.476 181.825 202.988C179.078 207.501 177.292 212.532 176.579 217.766C175.798 223.051 175.644 228.41 176.12 233.732C175.265 228.407 175.097 222.994 175.621 217.626C176.19 212.197 177.861 206.941 180.53 202.18C183.256 197.41 186.98 193.284 191.447 190.086C195.891 186.932 200.72 184.357 205.816 182.423C210.884 180.575 216.047 178.996 221.282 177.693C223.876 176.994 226.451 176.316 228.985 175.537C231.495 174.848 233.889 173.792 236.09 172.404C240.336 169.264 243.849 165.24 246.388 160.61C249.088 155.997 251.449 151.195 253.453 146.241Z" fill="#263238"/>
<path d="M300.89 134.666C307.464 144.177 312.532 154.644 315.918 165.699C319.394 176.809 320.748 188.474 319.909 200.084C319.424 205.894 318.238 211.623 316.377 217.147C315.958 218.544 315.399 219.882 314.86 221.239C314.321 222.596 313.802 223.953 313.124 225.23C312.445 226.507 311.867 227.864 311.128 229.221L308.873 232.953C302.565 242.667 294.432 251.065 284.925 257.68C287.06 255.684 289.315 253.988 291.371 251.992C293.426 249.996 295.542 248.001 297.358 245.845C301.219 241.645 304.636 237.057 307.556 232.155C313.493 222.363 317.061 211.32 317.973 199.905C318.857 188.528 317.66 177.085 314.441 166.138C312.9 160.626 310.986 155.225 308.713 149.973C306.475 144.69 303.86 139.575 300.89 134.666Z" fill="#263238"/>
<path d="M258.581 103.154C255.866 105.428 253.996 108.549 253.272 112.015C252.909 113.631 252.976 115.315 253.466 116.898C253.956 118.48 254.853 119.907 256.066 121.035C258.654 123.337 261.821 124.89 265.226 125.526C266.954 125.889 268.71 126.103 270.475 126.164C272.258 126.302 274.052 126.105 275.764 125.585C274.145 126.473 272.355 127.004 270.515 127.142C268.665 127.361 266.796 127.361 264.947 127.142C261.138 126.727 257.553 125.136 254.689 122.592C253.23 121.249 252.181 119.52 251.665 117.606C251.15 115.691 251.188 113.669 251.775 111.775C252.258 109.948 253.11 108.24 254.281 106.757C255.452 105.273 256.916 104.047 258.581 103.154Z" fill="#263238"/>
<path d="M271.693 199.366C264.608 245.925 223.537 340.72 217.331 352.894C213.12 361.156 168.975 339.862 172.687 334.693C177.417 328.048 224.874 244.768 247.505 214.633C259.998 198.009 273.15 189.747 271.693 199.366Z" fill="#F7A9A0"/>
<path d="M173.625 333.376C168.476 340.161 160.414 359.54 158.558 366.006C156.702 372.472 152.75 391.49 157.66 393.486C162.569 395.482 164.066 389.934 164.066 389.934C164.066 389.934 163.667 398.216 168.676 399.713C173.685 401.209 175.92 392.608 175.92 392.608C175.92 392.608 176.12 401.15 181.229 402.267C186.338 403.385 187.216 394.284 187.216 394.284C187.216 394.284 187.036 402.107 191.626 401.269C197.174 400.251 195.857 385.803 198.431 378.818C199.03 377.221 212.581 347.506 212.581 347.506L173.625 333.376Z" fill="#F7A9A0"/>
<path d="M186.119 394.544C185.181 383.927 186.618 379.117 191.427 369.777C191.427 369.598 191.268 369.418 191.148 369.598C185.62 378.299 182.946 384.086 185.6 394.624C185.74 395.143 186.159 395.063 186.119 394.544Z" fill="#263238"/>
<path d="M175.083 392.848C175.083 381.712 176.579 376.483 180.89 366.325C180.89 366.185 180.731 366.065 180.651 366.205C175.582 375.804 173.047 381.632 174.524 392.748C174.584 393.247 175.083 393.346 175.083 392.848Z" fill="#263238"/>
<path d="M163.388 388.816C164.146 378.04 165.563 372.232 171.011 362.872C171.027 362.831 171.028 362.785 171.015 362.742C171.001 362.7 170.974 362.663 170.937 362.638C170.901 362.612 170.856 362.6 170.812 362.603C170.767 362.606 170.725 362.623 170.692 362.653C164.819 369.999 162.074 379.362 163.048 388.716C163.108 389.495 163.328 389.495 163.388 388.816Z" fill="#263238"/>
<path d="M220.164 343.794C220.164 343.794 219.566 357.145 217.989 362.952C216.413 368.76 202.662 388.257 198.272 385.523C192.624 381.991 198.272 369.159 201.984 363.252C201.984 363.252 188.892 355.089 191.027 344.991C193.163 334.893 220.164 343.794 220.164 343.794Z" fill="#F7A9A0"/>
<path d="M197.034 384.047C194.201 377.102 199.469 369.638 202.562 363.631C202.612 363.544 202.64 363.446 202.644 363.346C202.647 363.246 202.627 363.147 202.584 363.057C202.54 362.966 202.476 362.888 202.396 362.828C202.316 362.768 202.222 362.729 202.123 362.713C196.875 358.921 190.548 352.056 190.668 345.211C190.668 345.168 190.651 345.128 190.621 345.098C190.592 345.068 190.551 345.051 190.509 345.051C190.466 345.051 190.426 345.068 190.396 345.098C190.366 345.128 190.349 345.168 190.349 345.211C189.231 352.515 194.899 359.779 200.926 363.571C197.653 369.678 192.704 377.381 196.935 384.086C196.995 384.106 197.054 384.086 197.034 384.047Z" fill="#263238"/>
<path d="M217.909 251.433C217.909 251.433 224.615 254.886 232.398 258.997C242.576 264.325 254.61 270.752 255.887 271.849C255.887 271.849 268.919 229.84 271.853 211.061C274.786 192.281 272.072 188.609 258.382 199.925C251.776 205.413 242.117 217.606 233.915 228.762C225.074 240.697 217.909 251.433 217.909 251.433Z" fill="#57EBDE"/>
<path d="M217.909 251.433C217.909 251.433 224.615 254.886 232.398 258.997C242.576 264.325 254.61 270.752 255.887 271.849C255.887 271.849 268.919 229.84 271.853 211.061C274.786 192.281 272.072 188.609 258.382 199.925C251.776 205.413 242.117 217.606 233.915 228.762C225.074 240.697 217.909 251.433 217.909 251.433Z" fill="#57EBDE"/>
<path d="M271.813 211.061C268.92 229.84 255.848 271.849 255.848 271.849C254.571 270.752 242.537 264.325 232.359 258.997L226.731 256.043C221.602 253.349 217.87 251.433 217.87 251.433C217.87 251.433 225.035 240.697 233.836 228.762C242.038 217.606 251.697 205.413 258.303 199.925L259.74 198.767C272.213 188.889 274.607 192.96 271.813 211.061Z" fill="#57EBDE"/>
<path d="M271.813 211.061C268.92 229.84 255.848 271.849 255.848 271.849C254.571 270.752 242.537 264.325 232.359 258.997L226.731 256.043C221.602 253.349 217.87 251.433 217.87 251.433C217.87 251.433 225.035 240.697 233.836 228.762C242.038 217.606 251.697 205.413 258.303 199.925L259.74 198.767C272.213 188.889 274.607 192.96 271.813 211.061Z" fill="#57EBDE"/>
<path d="M271.813 211.061C268.919 229.84 255.847 271.849 255.847 271.849C254.57 270.752 242.536 264.325 232.358 258.997L226.73 256.043C234.813 241.814 249.96 215.651 259.739 198.767C272.212 188.889 274.607 192.96 271.813 211.061Z" fill="#263238"/>
<path d="M257.584 262.469C246.437 256.065 234.959 250.256 223.198 245.067C223.058 245.067 222.978 245.227 223.198 245.287C226.052 246.564 244.392 256.742 257.564 262.709C257.623 262.769 257.723 262.549 257.584 262.469Z" fill="#263238"/>
<path d="M272.87 189.926C273.169 191.722 280.953 203.796 289.115 203.896C291.769 203.896 292.587 189.447 292.587 189.447L292.907 188.39L297.178 173.602L280.274 161.228L277.819 159.572C277.819 159.572 276.921 163.703 275.824 168.832C275.824 169.071 275.724 169.311 275.684 169.57C275.644 169.83 275.544 170.129 275.484 170.408C275.325 171.167 275.145 171.965 274.986 172.743C274.826 173.522 274.746 173.921 274.646 174.54C274.546 175.158 274.427 175.777 274.307 176.415C273.517 180.881 273.037 185.395 272.87 189.926Z" fill="#F7A9A0"/>
<path d="M275.845 168.792C277.1 173.095 279.276 177.072 282.223 180.45C285.169 183.827 288.815 186.523 292.908 188.35L297.179 173.562L280.275 161.188L277.82 159.532C277.82 159.532 276.922 163.663 275.845 168.792Z" fill="#263238"/>
<path d="M316.676 147.777C322.942 174.021 308.055 180.986 302.247 182.083C297.058 183.081 279.457 186.813 270.516 161.348C261.575 135.883 271.793 124.667 283.388 121.255C294.983 117.842 310.41 121.514 316.676 147.777Z" fill="#F7A9A0"/>
<path d="M314.022 142.409C313.383 142.409 312.784 142.409 312.146 142.409C311.489 142.466 310.832 142.312 310.27 141.97C310.113 141.826 310.01 141.633 309.977 141.423C309.944 141.212 309.984 140.997 310.09 140.812C310.339 140.47 310.677 140.201 311.068 140.036C311.458 139.871 311.886 139.815 312.305 139.874C313.177 139.85 314.025 140.157 314.68 140.733C314.794 140.875 314.869 141.045 314.897 141.226C314.924 141.407 314.904 141.592 314.837 141.762C314.77 141.932 314.659 142.081 314.516 142.195C314.373 142.309 314.202 142.382 314.022 142.409Z" fill="#263238"/>
<path d="M296.978 146.201C297.569 146.008 298.149 145.781 298.714 145.522C299.36 145.369 299.936 145.003 300.351 144.485C300.447 144.296 300.48 144.081 300.444 143.872C300.408 143.664 300.305 143.472 300.151 143.327C299.801 143.092 299.396 142.954 298.975 142.926C298.555 142.898 298.134 142.981 297.756 143.167C296.921 143.432 296.211 143.993 295.761 144.744C295.672 144.924 295.637 145.127 295.661 145.326C295.684 145.526 295.766 145.715 295.895 145.869C296.024 146.023 296.195 146.137 296.387 146.196C296.579 146.255 296.785 146.256 296.978 146.201Z" fill="#263238"/>
<path d="M301.987 152.108C301.987 152.108 301.867 152.108 301.987 152.288C302.386 154.084 302.545 156.279 301.009 157.117C301.009 157.117 301.009 157.237 301.009 157.217C302.885 156.558 302.645 153.745 301.987 152.108Z" fill="#263238"/>
<path d="M300.012 150.531C297.078 150.851 298.016 156.718 300.69 156.519C303.364 156.319 302.486 150.252 300.012 150.531Z" fill="#263238"/>
<path d="M298.914 151.01C298.455 151.41 298.036 152.068 297.417 152.228C296.798 152.387 296.1 151.869 295.541 151.35H295.441C295.601 152.487 296.2 153.565 297.437 153.565C298.674 153.565 299.193 152.427 299.313 151.27C299.353 151.13 299.094 150.851 298.914 151.01Z" fill="#263238"/>
<path d="M311.607 149.633C311.607 149.633 311.767 149.633 311.767 149.773C311.966 151.589 312.505 153.764 314.241 154.024V154.124C312.186 154.124 311.507 151.39 311.607 149.633Z" fill="#263238"/>
<path d="M312.964 147.498C315.858 146.859 316.956 152.687 314.242 153.286C311.527 153.884 310.53 148.017 312.964 147.498Z" fill="#263238"/>
<path d="M314.241 147.658C314.76 147.877 315.319 148.356 315.878 148.296C316.436 148.236 316.895 147.498 317.175 146.819C317.175 146.819 317.175 146.819 317.295 146.819C317.514 147.917 317.295 149.154 316.337 149.574C315.379 149.993 314.501 149.115 314.022 148.057C313.942 148.017 314.042 147.558 314.241 147.658Z" fill="#263238"/>
<path d="M304.064 166.138C304.543 166.517 305.042 167.076 305.72 167.056C306.424 166.977 307.104 166.753 307.716 166.397C307.716 166.397 307.836 166.397 307.716 166.397C307.495 166.786 307.171 167.106 306.781 167.324C306.39 167.542 305.948 167.65 305.501 167.634C305.12 167.569 304.767 167.395 304.484 167.133C304.2 166.871 303.999 166.532 303.904 166.158C303.904 166.158 303.984 166.078 304.064 166.138Z" fill="#263238"/>
<path d="M310.589 158.355C310.589 158.355 311.407 161.009 311.607 162.346C311.607 162.466 311.327 162.565 310.888 162.665C309.825 163.045 308.678 163.125 307.573 162.896C306.468 162.668 305.447 162.139 304.622 161.368C304.602 161.344 304.59 161.314 304.589 161.283C304.588 161.252 304.597 161.221 304.616 161.196C304.634 161.17 304.66 161.152 304.69 161.143C304.721 161.135 304.753 161.137 304.782 161.149C306.594 161.993 308.628 162.238 310.589 161.847C310.589 161.468 309.032 157.357 309.232 157.297C310.241 157.229 311.254 157.296 312.246 157.496C310.709 151.928 308.254 146.64 306.857 141.092C306.857 140.892 307.097 140.773 307.176 140.952C309.934 146.529 312.134 152.365 313.742 158.375C313.922 159.033 311.128 158.494 310.589 158.355Z" fill="#263238"/>
<path d="M310.63 161.647C310.152 162.842 309.376 163.893 308.375 164.701C307.801 165.138 307.1 165.376 306.379 165.379C304.842 165.379 304.383 164.102 304.383 162.905C304.345 162.235 304.398 161.564 304.543 160.909C306.438 161.808 308.574 162.067 310.63 161.647Z" fill="#263238"/>
<path d="M308.373 164.701C307.8 165.138 307.099 165.376 306.378 165.379C304.841 165.379 304.382 164.102 304.382 162.905C305.152 162.712 305.965 162.784 306.689 163.11C307.413 163.436 308.007 163.996 308.373 164.701Z" fill="#FF9BBC"/>
<path d="M270.954 160.47C273.848 159.891 280.334 150.771 278.558 136.642C278.558 136.642 279.276 149.434 278.558 151.43C277.839 153.425 282.17 146.301 280.913 134.885C284.86 136.943 289.08 138.428 293.446 139.296C299.014 140.034 302.307 139.515 302.626 139.076C302.945 138.637 294.643 137.26 292.208 135.085C292.208 135.085 307.435 139.695 314.161 139.276C314.939 139.276 313.622 123.43 302.506 118.221C291.39 113.013 276.263 122.472 272.571 127.262C272.571 127.262 267.582 128.719 263.111 137.021C258.641 145.323 267.841 161.109 270.954 160.47Z" fill="#263238"/>
<path d="M275.405 161.747C275.405 161.747 268.34 154.263 264.867 156.918C261.395 159.572 267.582 170.887 272.271 171.965C272.863 172.133 273.481 172.18 274.091 172.103C274.701 172.026 275.289 171.827 275.82 171.518C276.35 171.209 276.814 170.795 277.181 170.303C277.549 169.811 277.813 169.249 277.959 168.652L275.405 161.747Z" fill="#F7A9A0"/>
<path d="M124.113 607.982C124.891 607.603 234.294 553.68 252.395 519.753C284.745 459.084 296.001 381.532 300.072 363.311C308.45 342.319 314.143 320.352 317.015 297.933C317.015 297.933 228.846 297.933 228.846 297.933C228.846 297.933 205.716 342.177 217.65 373.43C218.728 376.303 198.033 474.511 187.915 486.146C176.659 499.058 90.3455 542.384 88.8887 543.123L124.113 607.982Z" fill="#37474F"/>
<path d="M275.865 309.149C271.514 331.42 266.565 353.592 261.575 375.725C256.586 397.857 251.338 419.63 245.809 441.442C243.016 452.459 240.142 463.442 237.188 474.391C234.494 484.37 231.86 494.588 225.074 502.63C218.289 510.673 209.628 516.201 201.326 521.948C192.545 527.935 183.524 533.743 174.344 539.191C155.824 550.207 136.725 560.206 117.547 570.004L110.502 573.577C109.983 573.836 110.502 574.615 110.981 574.355C130.419 564.696 149.817 554.837 168.616 543.981C178.023 538.566 187.256 532.885 196.317 526.938C200.767 524.004 205.157 520.951 209.508 517.877C213.602 515.032 217.539 511.968 221.302 508.697C224.998 505.451 228.163 501.646 230.682 497.421C233.104 493.034 235.006 488.379 236.35 483.551C239.563 472.954 242.237 462.158 245.011 451.441C250.759 429.289 256.081 407.044 260.977 384.705C265.946 362.373 270.556 339.962 274.567 317.431C275.066 314.697 275.545 311.962 276.064 309.228C276.184 309.029 275.884 308.949 275.865 309.149Z" fill="#263238"/>
<path d="M317.016 297.933C314.143 320.352 308.45 342.319 300.072 363.311C299.653 365.147 299.174 367.582 298.615 370.556C298.476 371.274 298.336 372.013 298.176 372.771C298.017 373.529 297.797 374.767 297.578 375.904C297.358 377.042 297.198 377.9 296.999 378.978L296.58 381.113C296.32 382.53 296.021 384.027 295.722 385.563C295.602 386.182 295.482 386.821 295.342 387.439C295.123 388.617 294.863 389.834 294.624 391.071C293.606 396.061 292.469 401.509 291.191 407.316C290.633 409.771 290.054 412.325 289.435 414.92C288.817 417.514 288.198 420.168 287.439 422.903C287.16 424.06 286.861 425.218 286.561 426.375C285.045 432.362 283.348 438.728 281.492 445.135C281.093 446.551 280.674 447.968 280.255 449.405C278.366 455.725 276.317 462.138 274.108 468.644C273.55 470.26 272.971 471.877 272.412 473.513C271.254 476.746 270.05 479.992 268.8 483.252L236.15 297.933C257.444 297.893 317.035 297.893 317.016 297.933Z" fill="#263238"/>
<path d="M264.468 376.822C264.468 376.822 272.012 448.347 275.524 484.35C276.422 493.31 277.021 500.096 277.241 502.989C277.241 504.147 277.36 522.826 277.4 547.274C277.4 568.707 277.4 594.531 277.4 616.783V632.749C277.4 653.264 277.4 667.873 277.4 667.873H350.103C350.103 667.873 350.103 667.194 350.103 665.877C350.103 665.199 350.103 664.36 350.103 663.363C350.103 662.365 350.103 661.167 350.103 659.81C350.103 659.032 350.103 658.174 350.103 657.296C350.103 651.169 350.323 642.687 350.462 632.809C350.462 627.74 350.602 622.331 350.682 616.664C351.241 572.639 351.7 513.507 350.442 496.084C350.283 494.089 350.143 491.993 350.003 489.858C346.73 440.544 344.914 368.76 320.727 297.813H228.726C228.726 297.813 229.524 339.483 248.483 369.658C253.941 371.746 259.278 374.138 264.468 376.822Z" fill="#37474F"/>
<path d="M332.921 518.616C332.561 495.625 331.623 472.715 329.827 449.725C328.031 426.734 325.277 404.462 321.605 381.991C318.087 359.381 313.189 337.007 306.937 314.996C306.139 312.242 305.32 309.488 304.482 306.754C304.472 306.716 304.454 306.68 304.43 306.649C304.405 306.618 304.375 306.592 304.341 306.572C304.307 306.553 304.269 306.54 304.23 306.536C304.191 306.531 304.151 306.534 304.113 306.544C304.075 306.555 304.039 306.573 304.008 306.597C303.977 306.621 303.951 306.651 303.932 306.685C303.912 306.72 303.9 306.757 303.895 306.797C303.89 306.836 303.893 306.875 303.903 306.913C309.791 328.866 314.86 351.158 318.711 373.649C322.563 396.14 325.098 419.031 327.013 441.862C328.929 464.692 330.007 487.762 330.586 510.693C331.164 533.623 331.204 556.593 330.985 579.524C330.765 602.454 329.867 625.425 329.807 648.295C329.807 651.169 329.807 654.043 329.807 656.917C329.807 657.116 330.107 657.096 330.107 656.917C330.526 645.421 331.204 633.926 331.584 622.411C331.963 610.896 332.302 599.361 332.581 587.826C333.02 564.756 333.28 541.686 332.921 518.616Z" fill="#263238"/>
<path d="M276.782 382.49C272.252 380.015 267.602 377.78 262.812 375.744C258.023 373.709 253.173 371.873 248.443 369.757C248.264 369.757 248.104 369.937 248.284 370.037C252.954 372.432 257.524 375.006 262.254 377.281C266.888 379.513 271.668 381.427 276.563 383.009C276.902 383.109 277.062 382.63 276.782 382.49Z" fill="#263238"/>
<path d="M323.142 273.366L331.264 329.245C331.264 329.245 235.012 330.582 212.401 329.006C212.401 329.006 236.03 224.531 260.298 198.149C272.471 184.937 286.741 185.935 295.841 195.155C298.136 197.49 325.597 233.791 328.49 247.661C331.065 259.895 323.142 273.366 323.142 273.366Z" fill="#57EBDE"/>
<path d="M279.516 213.435C293.167 215.431 373.154 210.701 387.283 194.097C404.446 174.001 425.201 134.546 430.45 121.893C433.883 113.492 394.168 91.9581 391.933 99.9409C388.441 112.434 357.548 159.632 355.153 163.803C352.758 167.974 317.235 180.187 296.54 190.525C277.98 199.785 269.897 211.979 279.516 213.435Z" fill="#F7A9A0"/>
<path d="M391.474 101.737C391.474 101.737 395.984 85.1329 399.456 74.4161C401.452 68.429 405.623 58.4506 409.056 54.7585C414.185 49.1507 439.19 29.0142 444.2 34.9813C448.75 40.3697 425.061 54.9382 425.061 54.9382C425.061 54.9382 447.672 38.1145 451.923 45.6183C456.174 53.1221 427.236 66.0342 427.236 66.0342C427.236 66.0342 450.865 49.2704 454.038 57.7122C456.433 64.0784 430.868 77.2499 430.868 77.2499C430.868 77.2499 451.264 62.9808 454.018 69.4268C457.072 76.5514 434.221 90.1819 434.221 90.1819C438.472 107.764 433.303 117.862 428.773 124.608C427.655 126.224 391.474 101.737 391.474 101.737Z" fill="#F7A9A0"/>
<path d="M416.839 60.2068C419.434 58.2111 422.028 56.0158 424.822 54.2197C427.616 52.4236 430.41 50.6474 433.324 49.0709C437.109 46.9414 441.127 45.2539 445.298 44.0417C438.321 47.0689 431.64 50.7367 425.341 54.998C422.587 56.8141 419.753 58.5104 416.999 60.3465C416.839 60.4063 416.779 60.3066 416.839 60.2068Z" fill="#263238"/>
<path d="M423.286 70.3449C426.698 67.8303 429.991 65.2359 433.523 62.881C437.056 60.5261 440.568 58.6302 444.22 56.5347C444.52 56.3751 444.5 56.5347 444.22 56.7542C440.648 58.9894 437.515 61.3244 433.982 63.5994C430.45 65.8745 426.798 68.0299 423.345 70.4247C423.286 70.4646 423.246 70.3848 423.286 70.3449Z" fill="#263238"/>
<path d="M427.256 79.984C432.407 76.0219 437.951 72.5981 443.8 69.7661C444.08 69.6264 444.04 69.8858 443.8 70.0655C438.232 73.3583 433.822 75.8929 427.436 80.1636C427.296 80.1636 427.076 80.1636 427.256 79.984Z" fill="#263238"/>
<path d="M335.136 168.213L354.574 210.262C354.574 210.262 306.438 223.154 283.368 220.061C266.704 217.826 267.263 204.575 290.233 190.904C308.374 180.108 335.136 168.213 335.136 168.213Z" fill="#57EBDE"/>
<path d="M345.733 210.661C340.682 197.649 334.933 184.918 328.51 172.524C328.51 172.364 328.211 172.524 328.291 172.644C329.848 175.657 338.409 196.771 345.474 210.781C345.554 210.941 345.793 210.821 345.733 210.661Z" fill="#263238"/>
<path d="M313.603 218.724C306.059 219.822 298.854 222.715 291.65 225.03C291.616 225.048 291.59 225.077 291.575 225.112C291.561 225.147 291.56 225.187 291.572 225.223C291.584 225.259 291.608 225.29 291.641 225.309C291.674 225.329 291.712 225.336 291.75 225.33C294.524 224.531 297.358 223.813 300.192 223.075C298.894 223.853 297.637 224.691 296.34 225.449C296.16 225.449 296.34 225.809 296.5 225.709C298.495 224.571 300.491 223.713 302.487 222.456C306.278 221.504 310.004 220.311 313.643 218.884C313.643 218.884 313.722 218.704 313.603 218.724Z" fill="#263238"/>
<path d="M645.923 99.9808C643.249 96.0243 641.805 91.3652 641.772 86.5897C641.772 69.6464 660.392 55.8961 683.363 55.8961C706.333 55.8961 724.913 69.6464 724.913 86.5897C724.913 103.533 706.313 117.303 683.363 117.303C673.159 117.469 663.149 114.502 654.684 108.802L640.355 112.454L645.923 99.9808Z" fill="#252525"/>
<path d="M645.924 99.9808C643.268 96.2572 641.749 91.8435 641.55 87.2742C641.352 82.7049 642.483 78.1761 644.806 74.2364C647.135 70.3118 650.255 66.9139 653.966 64.258C657.658 61.568 661.744 59.4675 666.08 58.0315C670.411 56.5847 674.9 55.6667 679.451 55.2974C684.005 54.9771 688.58 55.1982 693.082 55.956C702.231 57.3224 710.742 61.4595 717.469 67.8103C720.815 71.0706 723.328 75.0887 724.793 79.525C726.209 84.0271 726.251 88.8492 724.913 93.3751C723.526 97.835 721.074 101.89 717.768 105.19C714.521 108.472 710.734 111.172 706.572 113.172C698.251 117.06 689.068 118.737 679.91 118.042C670.771 117.553 661.948 114.533 654.425 109.321H654.784L640.415 112.733L639.937 112.853L640.136 112.414L645.924 99.9808ZM645.924 99.9808L640.575 112.554L640.296 112.214L654.565 108.363H654.764L654.944 108.502C662.414 113.401 671.083 116.162 680.01 116.485C684.442 116.693 688.883 116.378 693.241 115.547C697.589 114.801 701.814 113.458 705.794 111.556C709.755 109.64 713.359 107.062 716.451 103.932C719.521 100.832 721.788 97.0305 723.057 92.8562C724.263 88.6895 724.207 84.2589 722.897 80.1237C721.544 75.9873 719.217 72.2366 716.112 69.1874C709.69 63.0696 701.548 59.065 692.782 57.7122C684.021 56.1486 675.011 56.7237 666.519 59.3885C657.92 61.86 650.484 67.3153 645.544 74.7753C643.213 78.574 641.996 82.9512 642.032 87.408C642.161 91.875 643.506 96.2222 645.924 99.9808Z" fill="#263238"/>
<path d="M659.773 86.5897C659.773 87.4423 660.026 88.2757 660.5 88.9846C660.974 89.6935 661.647 90.246 662.434 90.5723C663.222 90.8986 664.089 90.9839 664.925 90.8176C665.761 90.6513 666.529 90.2407 667.132 89.6379C667.735 89.035 668.146 88.2669 668.312 87.4307C668.478 86.5945 668.393 85.7278 668.067 84.9401C667.74 84.1524 667.188 83.4792 666.479 83.0055C665.77 82.5319 664.937 82.2791 664.084 82.2791C662.941 82.2791 661.844 82.7332 661.036 83.5416C660.228 84.35 659.773 85.4465 659.773 86.5897Z" fill="#263238"/>
</g>
</svg>
