<svg width="16" height="18" viewBox="0 0 16 18" fill="none" xmlns="http://www.w3.org/2000/svg">
<path d="M8.00028 0.428558C8.73331 0.428558 9.4383 0.710298 9.96943 1.2155C10.5006 1.72071 10.8172 2.41073 10.8539 3.14284L10.8574 3.2857H14.4289C14.6109 3.2859 14.786 3.35561 14.9184 3.48059C15.0508 3.60557 15.1304 3.77638 15.1411 3.95813C15.1518 4.13987 15.0927 4.31883 14.9758 4.45844C14.859 4.59805 14.6932 4.68777 14.5124 4.70927L14.4289 4.71427H13.8224L12.9796 15.1093C12.9252 15.78 12.6203 16.4058 12.1256 16.862C11.6309 17.3182 10.9825 17.5715 10.3096 17.5714H5.69099C5.01803 17.5715 4.3697 17.3182 3.87497 16.862C3.38024 16.4058 3.07537 15.78 3.02099 15.1093L2.17742 4.71427H1.57171C1.39676 4.71425 1.2279 4.65002 1.09716 4.53376C0.966417 4.41751 0.882891 4.25731 0.862422 4.08356L0.857422 3.99999C0.857445 3.82503 0.921676 3.65617 1.03793 3.52544C1.15419 3.3947 1.31439 3.31117 1.48814 3.2907L1.57171 3.2857H5.14314C5.14314 2.52794 5.44416 1.80121 5.97997 1.2654C6.51579 0.729578 7.24252 0.428558 8.00028 0.428558ZM6.39314 7.0357C6.26368 7.03571 6.13861 7.08259 6.04104 7.16768C5.94348 7.25277 5.88003 7.37031 5.86242 7.49856L5.85742 7.57141V13.2857L5.86242 13.3586C5.88006 13.4868 5.94353 13.6043 6.04109 13.6893C6.13865 13.7744 6.26371 13.8212 6.39314 13.8212C6.52257 13.8212 6.64762 13.7744 6.74518 13.6893C6.84274 13.6043 6.90621 13.4868 6.92385 13.3586L6.92885 13.2857V7.57141L6.92385 7.49856C6.90624 7.37031 6.84279 7.25277 6.74523 7.16768C6.64767 7.08259 6.52259 7.03571 6.39314 7.0357ZM9.60742 7.0357C9.47797 7.03571 9.35289 7.08259 9.25533 7.16768C9.15777 7.25277 9.09431 7.37031 9.07671 7.49856L9.07171 7.57141V13.2857L9.07671 13.3586C9.09435 13.4868 9.15782 13.6043 9.25538 13.6893C9.35294 13.7744 9.47799 13.8212 9.60742 13.8212C9.73685 13.8212 9.86191 13.7744 9.95947 13.6893C10.057 13.6043 10.1205 13.4868 10.1381 13.3586L10.1431 13.2857V7.57141L10.1381 7.49856C10.1205 7.37031 10.0571 7.25277 9.95952 7.16768C9.86195 7.08259 9.73688 7.03571 9.60742 7.0357ZM8.00028 1.85713C7.63987 1.85702 7.29273 1.99313 7.02846 2.2382C6.76419 2.48326 6.60231 2.81916 6.57528 3.17856L6.57171 3.2857H9.42885L9.42528 3.17856C9.39825 2.81916 9.23637 2.48326 8.9721 2.2382C8.70783 1.99313 8.36069 1.85702 8.00028 1.85713Z" fill="#969696"/>
</svg>
