<svg width="38" height="38" viewBox="0 0 38 38" fill="none" xmlns="http://www.w3.org/2000/svg">
<path fill-rule="evenodd" clip-rule="evenodd" d="M14.4058 27.3833L17.3399 28.1618V27.1438L17.5795 26.9043H19.2561V28.1019V28.9402H17.4597L15.2441 27.9821L14.4058 27.3833Z" fill="#CDBDB2"/>
<path fill-rule="evenodd" clip-rule="evenodd" d="M23.9873 27.3833L21.1131 28.1618V27.1438L20.8735 26.9043H19.1969V28.1019V28.9402H20.9933L23.2088 27.9821L23.9873 27.3833Z" fill="#CDBDB2"/>
<path fill-rule="evenodd" clip-rule="evenodd" d="M17.5818 25.1679L17.3423 27.1439L17.6416 26.9043H20.7554L21.1147 27.1439L20.8752 25.1679L20.3961 24.8684L18.0009 24.9283L17.5818 25.1679Z" fill="#393939"/>
<path fill-rule="evenodd" clip-rule="evenodd" d="M15.9639 11.8145L17.401 15.1677L18.0597 24.9283H20.395L21.1136 15.1677L22.4309 11.8145H15.9639Z" fill="#F89C35"/>
<path fill-rule="evenodd" clip-rule="evenodd" d="M9.67665 19.18L8 24.0302L12.1916 23.7907H14.8862V21.6949L14.7664 17.3835L14.1676 17.8626L9.67665 19.18Z" fill="#F89D35"/>
<path fill-rule="evenodd" clip-rule="evenodd" d="M12.8501 19.7188L17.7603 19.8385L17.2214 22.3535L14.886 21.7547L12.8501 19.7188Z" fill="#D87C30"/>
<path fill-rule="evenodd" clip-rule="evenodd" d="M12.8501 19.7781L14.886 21.6942V23.6104L12.8501 19.7781Z" fill="#EA8D3A"/>
<path fill-rule="evenodd" clip-rule="evenodd" d="M14.8857 21.7549L17.281 22.3537L18.0594 24.9286L17.5205 25.2279L14.8857 23.6711V21.7549Z" fill="#F89D35"/>
<path fill-rule="evenodd" clip-rule="evenodd" d="M14.8848 23.6709L14.4058 27.3835L17.5795 25.168L14.8848 23.6709Z" fill="#EB8F35"/>
<path fill-rule="evenodd" clip-rule="evenodd" d="M17.7604 19.8384L18.0599 24.9283L17.1616 22.3234L17.7604 19.8384Z" fill="#EA8E3A"/>
<path fill-rule="evenodd" clip-rule="evenodd" d="M12.1318 23.7308L14.8863 23.6709L14.4073 27.3835L12.1318 23.7308Z" fill="#D87C30"/>
<path fill-rule="evenodd" clip-rule="evenodd" d="M9.31736 28.9999L14.4071 27.3831L12.1317 23.7305L8 24.0298L9.31736 28.9999Z" fill="#EB8F35"/>
<path fill-rule="evenodd" clip-rule="evenodd" d="M17.401 15.1675L14.8262 17.3232L12.8501 19.7184L17.7603 19.8981L17.401 15.1675Z" fill="#E8821E"/>
<path fill-rule="evenodd" clip-rule="evenodd" d="M14.4058 27.3832L17.5795 25.1677L17.3399 27.0839V28.1617L15.1843 27.7425L14.4058 27.3832Z" fill="#DFCEC3"/>
<path fill-rule="evenodd" clip-rule="evenodd" d="M23.9873 27.3832L20.8735 25.1677L21.1131 27.0839V28.1617L23.2687 27.7425L23.9873 27.3832Z" fill="#DFCEC3"/>
<path fill-rule="evenodd" clip-rule="evenodd" d="M16.4431 20.9165L17.1018 22.2938L14.7664 21.695L16.4431 20.9165Z" fill="#393939"/>
<path fill-rule="evenodd" clip-rule="evenodd" d="M9.25781 9L17.4015 15.1676L16.0243 11.8143L9.25781 9Z" fill="#E88F35"/>
<path fill-rule="evenodd" clip-rule="evenodd" d="M9.25802 9L8.18018 12.2934L8.77898 15.8862L8.35982 16.1257L8.95862 16.6647L8.47958 17.0838L9.13826 17.6826L8.7191 18.0419L9.67718 19.2395L14.1682 17.8623C16.3638 16.1058 17.4417 15.2076 17.4017 15.1677C17.3618 15.1277 14.6472 13.0719 9.25802 9Z" fill="#8E5A30"/>
<path fill-rule="evenodd" clip-rule="evenodd" d="M28.7198 19.18L30.3965 24.0302L26.2049 23.7907H23.5103V21.6949L23.6301 17.3835L24.2289 17.8626L28.7198 19.18Z" fill="#F89D35"/>
<path fill-rule="evenodd" clip-rule="evenodd" d="M25.5464 19.7188L20.6362 19.8385L21.1751 22.3535L23.5105 21.7547L25.5464 19.7188Z" fill="#D87C30"/>
<path fill-rule="evenodd" clip-rule="evenodd" d="M25.5464 19.7781L23.5105 21.6942V23.6104L25.5464 19.7781Z" fill="#EA8D3A"/>
<path fill-rule="evenodd" clip-rule="evenodd" d="M23.5105 21.7544L21.1153 22.3532L20.3368 24.9281L20.8758 25.2274L23.5105 23.6706V21.7544Z" fill="#F89D35"/>
<path fill-rule="evenodd" clip-rule="evenodd" d="M23.5109 23.6709L23.99 27.3835L20.8762 25.2278L23.5109 23.6709Z" fill="#EB8F35"/>
<path fill-rule="evenodd" clip-rule="evenodd" d="M20.6361 19.8384L20.3366 24.9283L21.2349 22.3234L20.6361 19.8384Z" fill="#EA8E3A"/>
<path fill-rule="evenodd" clip-rule="evenodd" d="M26.2666 23.7308L23.5121 23.6709L23.9912 27.3835L26.2666 23.7308Z" fill="#D87C30"/>
<path fill-rule="evenodd" clip-rule="evenodd" d="M29.0791 28.9999L23.9894 27.3831L26.2648 23.7305L30.3965 24.0298L29.0791 28.9999Z" fill="#EB8F35"/>
<path fill-rule="evenodd" clip-rule="evenodd" d="M20.9955 15.1675L23.5703 17.3232L25.5464 19.7184L20.6362 19.8981L20.9955 15.1675Z" fill="#E8821E"/>
<path fill-rule="evenodd" clip-rule="evenodd" d="M21.9534 20.916L21.2947 22.2933L23.6301 21.6945L21.9534 20.916Z" fill="#393939"/>
<path fill-rule="evenodd" clip-rule="evenodd" d="M29.1389 9L20.9952 15.1676L22.3724 11.8143L29.1389 9Z" fill="#E88F35"/>
<path fill-rule="evenodd" clip-rule="evenodd" d="M29.1397 9L30.2175 12.2934L29.6187 15.8862L30.0379 16.1257L29.4391 16.6647L29.9181 17.0838L29.2594 17.6826L29.6786 18.0419L28.7205 19.2395L24.2295 17.8623C22.0339 16.1058 20.9561 15.2076 20.996 15.1677C21.0359 15.1277 23.7505 13.0719 29.1397 9Z" fill="#8E5A30"/>
<circle cx="19" cy="19" r="18.1739" stroke="url(#paint0_linear_21_6603)" stroke-width="1.65217"/>
<defs>
<linearGradient id="paint0_linear_21_6603" x1="-7.38889" y1="-8.92481" x2="31.0946" y2="22.3097" gradientUnits="userSpaceOnUse">
<stop stop-color="#AEFB2A"/>
<stop offset="1" stop-color="#57EBDE"/>
</linearGradient>
</defs>
</svg>
