<svg width="26" height="30" viewBox="0 0 26 30" fill="none" xmlns="http://www.w3.org/2000/svg">
<path d="M13.0003 0.428589C14.2464 0.428588 15.4449 0.907546 16.3478 1.7664C17.2508 2.62525 17.789 3.79828 17.8514 5.04287L17.8574 5.28573H23.9289C24.2383 5.28608 24.536 5.40458 24.7611 5.61705C24.9861 5.82951 25.1216 6.11989 25.1397 6.42885C25.1578 6.73782 25.0573 7.04205 24.8587 7.27939C24.66 7.51672 24.3783 7.66925 24.0709 7.7058L23.9289 7.7143H22.8979L21.4651 25.3858C21.3726 26.5261 20.8543 27.5898 20.0133 28.3654C19.1723 29.141 18.0701 29.5715 16.9261 29.5714H9.07449C7.93045 29.5715 6.82829 29.141 5.98725 28.3654C5.14622 27.5898 4.62793 26.5261 4.53549 25.3858L3.10142 7.7143H2.07171C1.77429 7.71426 1.48723 7.60507 1.26497 7.40743C1.04271 7.2098 0.90072 6.93747 0.865922 6.64209L0.857422 6.50002C0.857461 6.2026 0.966654 5.91554 1.16429 5.69328C1.36193 5.47102 1.63426 5.32903 1.92964 5.29423L2.07171 5.28573H8.14314C8.14314 3.99754 8.65487 2.7621 9.56576 1.85121C10.4767 0.940322 11.7121 0.428589 13.0003 0.428589ZM10.2681 11.6607C10.0481 11.6607 9.83544 11.7404 9.66958 11.8851C9.50372 12.0297 9.39585 12.2296 9.36592 12.4476L9.35742 12.5714V22.2857L9.36592 22.4096C9.39591 22.6276 9.50381 22.8273 9.66966 22.9719C9.83551 23.1165 10.0481 23.1962 10.2681 23.1962C10.4882 23.1962 10.7008 23.1165 10.8666 22.9719C11.0325 22.8273 11.1404 22.6276 11.1704 22.4096L11.1789 22.2857V12.5714L11.1704 12.4476C11.1404 12.2296 11.0326 12.0297 10.8667 11.8851C10.7008 11.7404 10.4882 11.6607 10.2681 11.6607ZM15.7324 11.6607C15.5123 11.6607 15.2997 11.7404 15.1339 11.8851C14.968 12.0297 14.8601 12.2296 14.8302 12.4476L14.8217 12.5714V22.2857L14.8302 22.4096C14.8602 22.6276 14.9681 22.8273 15.1339 22.9719C15.2998 23.1165 15.5124 23.1962 15.7324 23.1962C15.9525 23.1962 16.165 23.1165 16.3309 22.9719C16.4967 22.8273 16.6046 22.6276 16.6346 22.4096L16.6431 22.2857V12.5714L16.6346 12.4476C16.6047 12.2296 16.4968 12.0297 16.331 11.8851C16.1651 11.7404 15.9525 11.6607 15.7324 11.6607ZM13.0003 2.85716C12.3876 2.85697 11.7974 3.08837 11.3482 3.50498C10.8989 3.92159 10.6237 4.49261 10.5778 5.10359L10.5717 5.28573H15.4289L15.4228 5.10359C15.3768 4.49261 15.1016 3.92159 14.6524 3.50498C14.2031 3.08837 13.613 2.85697 13.0003 2.85716Z" fill="#EB5772"/>
</svg>
